<svg width="500.000000pt" height="500.000000pt" viewBox="0 0 500.000000 500.000000" xmlns="http://www.w3.org/2000/svg">
  <g transform="translate(0.000000,500.000000) scale(0.100000,-0.100000)" fill="#fefefe" stroke="none">
    <path d="M0 2500 l0 -2500 2500 0 2500 0 0 2500 0 2500 -2500 0 -2500 0 0
-2500z m3583 1884 l47 -16 20 -25 c30 -38 49 -116 56 -223 l7 -97 -17 -77 -18
-77 -24 -11 -24 -11 0 -19 0 -18 -34 0 -34 0 -26 -52 c-41 -82 -36 -92 42 -79
l52 8 0 -48 0 -49 -22 -5 c-13 -2 -34 -6 -48 -7 l-25 -3 -3 -64 -3 -64 50 5
51 5 0 -47 0 -48 -16 -6 c-9 -3 -29 -6 -46 -6 l-30 0 6 -22 c3 -13 6 -44 6
-69 l0 -46 113 -7 112 -7 118 11 c65 6 151 20 190 31 40 12 91 23 114 26 l43
5 7 -18 c10 -26 -18 -94 -48 -116 l-25 -19 -75 -10 c-41 -5 -130 -21 -199 -36
l-125 -25 -165 5 c-91 3 -172 8 -181 12 -9 3 -21 17 -27 31 -7 13 -17 24 -24
24 -7 -1 -47 -46 -88 -102 -41 -55 -104 -126 -139 -157 -104 -91 -127 -117
-155 -172 l-26 -53 0 -42 0 -43 81 -85 81 -86 82 -47 81 -48 90 -90 c50 -49
120 -125 157 -169 l67 -78 21 -55 c19 -50 133 -429 160 -531 l11 -43 24 -9
c26 -10 169 -26 330 -36 l110 -7 -29 -8 c-17 -5 -99 -13 -183 -19 -160 -10
-188 -17 -198 -49 l-6 -20 15 -29 c21 -41 35 -50 102 -66 71 -18 216 -31 504
-47 206 -11 279 -19 174 -19 -116 0 -455 -21 -519 -31 -38 -6 -82 -18 -97 -25
l-28 -15 0 -29 0 -30 -12 -1 c-51 -5 -97 16 -131 58 l-18 23 -67 22 -67 23
-1265 5 c-696 3 -1266 7 -1267 8 -2 1 -3 7 -3 12 l0 10 213 0 c116 0 316 4
442 10 127 5 581 15 1010 20 429 6 799 13 823 17 l42 6 0 49 0 49 -24 24 -23
23 -49 9 c-27 4 -125 8 -219 7 -93 0 -489 -1 -880 -3 -390 -1 -759 1 -820 4
l-110 7 -60 -10 -60 -10 -190 9 c-104 5 -329 12 -498 15 -169 4 -305 9 -302
13 8 8 1302 25 1530 20 94 -2 229 -4 300 -4 l130 0 -1 35 c-1 50 -51 275 -68
308 -8 15 -22 53 -31 85 l-16 57 -15 0 c-7 0 -40 -13 -71 -30 l-58 -30 -150
-25 c-160 -26 -193 -29 -240 -20 l-30 6 -29 -30 c-33 -34 -46 -39 -46 -16 0 8
-4 15 -9 15 -20 0 -278 -40 -327 -50 l-52 -11 -133 -76 c-73 -41 -139 -78
-147 -80 l-13 -6 7 29 c4 16 14 43 22 59 22 45 154 227 167 230 5 2 86 8 178
14 l168 10 87 29 c94 32 152 44 308 67 156 23 181 36 220 120 29 61 29 71 5
78 l-20 5 -25 50 c-30 59 -62 85 -171 140 -44 22 -117 62 -163 90 -46 28 -106
58 -133 67 l-50 17 -82 -41 c-45 -23 -137 -70 -205 -106 -175 -92 -184 -94
-601 -140 -80 -9 -196 -29 -258 -45 l-114 -29 -102 -49 -103 -49 -53 -54 -54
-54 7 35 c3 19 21 67 40 105 18 39 39 87 46 107 l14 37 45 10 c25 6 86 15 136
21 l90 11 85 38 c108 48 149 57 345 76 l160 16 55 36 c30 20 87 68 126 107 75
75 184 229 184 259 l0 18 -45 -7 -45 -6 0 50 0 50 31 6 c17 3 40 6 50 6 l19 0
0 -40 0 -40 13 0 c16 0 77 74 77 94 l0 16 -40 -6 -40 -7 0 52 0 51 19 0 c10 0
33 3 50 6 l31 7 0 -42 0 -41 15 0 c36 0 145 115 145 153 0 17 -20 37 -37 37
l-13 0 0 -35 0 -36 -12 -4 c-7 -2 -30 -6 -50 -10 l-38 -6 0 50 0 49 40 7 40 7
0 17 c0 9 -18 32 -40 51 -22 19 -40 38 -40 42 0 4 -19 38 -41 75 -23 38 -48
82 -55 99 l-13 31 33 49 c62 92 150 163 344 279 147 87 159 91 277 105 55 7
102 13 104 15 7 7 20 91 36 240 10 83 21 157 25 165 20 38 130 58 248 44 l52
-7 30 -61 c16 -34 35 -88 41 -121 l12 -60 -23 -78 -23 -77 -24 -24 -24 -24
-75 -24 -76 -23 5 -55 c2 -30 15 -84 28 -118 l24 -64 35 5 c19 3 43 8 53 12
l18 8 -3 -48 -3 -48 -43 -16 -43 -16 6 -25 c9 -34 8 -34 57 -18 l43 15 3 25 3
24 49 16 c28 9 50 12 50 7 0 -5 7 -9 15 -9 18 0 97 39 106 51 3 5 30 17 60 27
l54 19 3 60 3 61 27 6 c15 3 37 8 50 12 l22 6 0 -41 0 -41 23 1 c12 0 38 6 57
13 l35 13 5 48 5 48 45 13 c25 8 46 14 48 14 1 0 2 -13 2 -30 l0 -30 18 0 c27
0 91 48 98 74 8 32 -10 123 -47 238 l-31 96 18 47 17 47 45 44 c86 86 191 114
295 78z m483 -454 l14 0 0 -50 0 -50 -34 0 c-19 0 -41 3 -50 6 l-16 6 0 42 c0
52 6 59 44 52 16 -3 35 -6 42 -6z m-209 -50 l-2 -50 -47 0 -48 0 0 50 0 50 50
0 49 0 -2 -50z m428 25 l25 -5 0 -49 0 -48 -42 8 c-24 4 -46 8 -50 9 -5 0 -8
23 -8 50 l0 50 25 -5 c14 -3 36 -7 50 -10z m208 -51 l47 -16 0 -44 c0 -24 -3
-44 -6 -44 -3 0 -25 5 -50 11 l-44 11 0 49 c0 27 1 49 3 49 2 0 24 -7 50 -16z
m-523 -84 l0 -50 -50 0 -50 0 0 50 0 50 50 0 50 0 0 -50z m191 40 l29 0 0 -50
0 -50 -29 0 c-16 0 -36 3 -45 6 l-16 6 0 50 0 50 16 -6 c9 -3 29 -6 45 -6z
m-421 -50 l0 -50 -34 0 c-19 0 -41 -3 -50 -6 l-16 -6 0 50 0 50 13 5 c6 3 29
6 50 6 l37 1 0 -50z m980 5 c51 -26 54 -31 44 -83 l-6 -30 -49 22 -49 21 0 48
c0 26 2 47 5 47 3 0 28 -11 55 -25z m-308 -1 c4 -3 8 -26 8 -51 l0 -45 -31 6
c-17 3 -40 6 -50 6 l-19 0 0 51 0 52 42 -7 c22 -4 45 -9 50 -12z m201 -65 l37
-12 0 -49 0 -50 -12 6 c-7 2 -30 10 -50 17 l-38 12 0 49 0 50 13 -6 c6 -2 29
-10 50 -17z m-757 -13 c7 -28 -3 -67 -20 -78 -6 -4 -26 -8 -43 -8 l-33 0 0 49
0 50 33 4 c17 2 38 5 44 5 7 1 15 -9 19 -22z m208 18 l16 -6 0 -50 0 -50 -22
6 c-13 3 -35 6 -50 6 l-28 0 0 50 0 50 34 0 c19 0 41 -3 50 -6z m219 -24 l27
0 0 -50 0 -50 -19 0 c-10 0 -33 3 -50 6 l-31 7 0 49 0 50 23 -6 c12 -3 34 -6
50 -6z m-1563 -48 l0 -48 -50 -16 -50 -16 0 48 0 48 43 15 c59 21 57 22 57
-31z m2243 -4 l27 -19 0 -45 0 -45 -37 26 c-21 14 -43 25 -50 25 l-13 0 0 50
0 51 23 -12 c12 -7 34 -21 50 -31z m-459 -4 l36 -6 0 -50 0 -50 -22 6 c-13 4
-35 9 -50 12 l-28 7 0 49 0 50 14 -5 c8 -3 31 -9 50 -13z m376 -101 c0 -23 -2
-43 -5 -43 -3 0 -25 10 -50 23 l-44 22 -1 48 0 48 50 -27 50 -27 0 -44z m-910
17 l0 -50 -50 0 -50 0 0 50 0 50 50 0 50 0 0 -50z m218 35 c2 -2 5 -24 8 -49
l4 -46 -19 0 c-10 0 -33 3 -50 6 l-31 7 0 49 0 50 43 -7 c23 -4 43 -9 45 -10z
m-448 -45 l0 -50 -50 0 -50 0 0 50 0 50 50 0 50 0 0 -50z m678 -44 l3 -48 -33
7 c-18 3 -41 9 -50 11 l-18 5 0 49 0 48 48 -12 47 -12 3 -48z m297 52 c25 -12
45 -27 46 -32 0 -6 1 -27 2 -46 l2 -35 -52 20 -53 20 0 48 c0 26 2 47 5 47 2
0 25 -10 50 -22z m-4495 -111 l0 -48 -50 28 -50 28 0 46 0 47 50 -27 50 -26 0
-48z m4393 42 l37 -13 0 -47 0 -47 -50 16 -50 17 0 49 0 48 13 -5 c6 -2 29
-10 50 -18z m-4520 -36 l17 -5 0 -50 0 -50 -25 16 c-14 9 -36 23 -50 32 l-25
16 0 45 0 45 33 -22 c17 -12 40 -24 50 -27z m3767 -3 l0 -50 -19 0 c-10 0 -33
-3 -50 -6 l-31 -6 0 50 0 51 18 4 c9 3 32 5 50 6 l32 1 0 -50z m220 0 l0 -50
-50 0 -50 0 0 50 0 50 50 0 50 0 0 -50z m211 20 l19 0 0 -51 0 -52 -37 7 c-21
3 -44 6 -50 6 l-13 0 0 51 0 52 31 -7 c17 -3 40 -6 50 -6z m655 -40 l44 -31 0
-45 0 -44 -50 32 -50 33 0 43 c0 23 3 42 6 42 3 0 25 -14 50 -30z m-4533 -21
l37 -13 0 -48 0 -48 -47 19 -48 19 -3 47 -3 48 13 -5 c7 -3 30 -11 51 -19z
m4100 5 l27 -6 0 -50 0 -50 -22 6 c-13 4 -35 9 -50 12 l-28 7 0 49 0 50 23 -6
c12 -4 34 -9 50 -12z m367 -97 c0 -27 -3 -47 -7 -45 -5 2 -27 13 -50 24 l-43
19 0 47 0 47 50 -22 50 -22 0 -48z m-4595 31 l45 -22 0 -44 0 -44 -12 5 c-7 2
-30 10 -50 18 l-38 13 0 48 c0 26 2 48 5 48 2 0 25 -10 50 -22z m365 -8 l25
-6 3 -47 3 -47 -11 0 c-6 0 -31 5 -56 11 l-44 11 0 49 0 49 28 -6 c15 -4 38
-10 52 -14z m4071 -11 l49 -21 0 -49 0 -48 -52 23 -53 23 -3 47 c-2 25 0 46 3
46 4 0 29 -10 56 -21z m-4501 -106 c0 -24 -2 -43 -5 -43 -2 0 -25 10 -50 22
l-45 22 0 48 0 48 50 -28 50 -27 0 -42z m1140 48 l0 -49 -22 -6 c-13 -3 -35
-6 -50 -6 l-28 0 0 49 0 50 38 4 c20 2 43 4 50 5 l12 2 0 -49z m-462 -16 l3
-50 -51 3 -50 4 0 50 0 49 48 -3 47 -3 3 -50z m232 -5 l0 -50 -50 0 -50 0 0
50 0 50 50 0 50 0 0 -50z m-570 -51 l0 -47 -50 16 -50 16 0 47 0 47 50 -16 50
-16 0 -47z m-450 -31 l0 -48 -50 31 -50 31 0 44 0 45 50 -28 50 -28 0 -47z
m4836 35 l44 -28 0 -47 0 -47 -50 31 -50 31 0 43 c0 24 3 44 6 44 4 0 26 -12
50 -27z m-4163 -3 c4 0 7 -23 7 -51 l0 -50 -17 5 c-10 2 -33 7 -50 11 l-33 7
0 47 0 48 43 -8 c23 -4 45 -8 50 -9z m687 -29 l0 -48 -31 -7 c-17 -3 -40 -6
-50 -6 l-19 0 0 49 0 50 38 4 c20 2 43 4 50 5 l12 2 0 -49z m-1063 13 l43 -17
0 -48 0 -48 -50 21 -50 21 0 43 c0 50 -1 50 57 28z m603 -13 c5 -11 10 -36 10
-57 l0 -37 -37 7 c-21 3 -44 6 -50 6 l-13 0 0 50 0 50 40 0 39 0 11 -19z m230
-31 l0 -50 -50 0 -50 0 0 50 0 50 50 0 50 0 0 -50z m-956 -20 l46 -19 0 -46
c0 -25 -2 -45 -5 -45 -2 0 -25 10 -50 22 l-45 22 0 43 c0 24 2 43 4 43 2 0 25
-9 50 -20z m359 -6 l37 -6 0 -50 0 -50 -26 6 c-15 4 -39 10 -55 13 l-29 6 0
49 0 49 18 -5 c9 -3 34 -8 55 -12z m-423 -126 l0 -48 -50 28 -50 27 0 48 0 48
50 -27 50 -27 0 -49z m680 41 l0 -49 -34 0 c-19 0 -41 3 -50 6 l-16 6 0 47 0
46 50 -3 50 -4 0 -49z m460 11 l0 -50 -12 0 c-7 0 -30 -3 -50 -6 l-38 -7 0 51
0 51 33 4 c17 2 40 5 50 5 l17 2 0 -50z m-230 -20 l0 -50 -50 0 -50 0 0 50 0
50 50 0 50 0 0 -50z m-617 14 l47 -16 0 -44 0 -44 -11 0 c-7 0 -29 5 -50 12
l-39 11 0 49 c0 26 1 48 3 48 2 0 24 -7 50 -16z m243 -54 l34 0 0 -50 0 -50
-19 0 c-10 0 -33 3 -50 6 l-31 7 0 49 0 50 16 -6 c9 -3 31 -6 50 -6z m-306
-91 l0 -49 -47 19 -48 19 -3 50 -3 51 50 -21 51 -21 0 -48z m564 55 c3 -9 6
-31 6 -50 l0 -34 -50 0 -50 0 0 50 0 50 44 0 44 0 6 -16z m226 -34 l0 -50 -50
0 -50 0 0 50 0 50 50 0 50 0 0 -50z m-589 -27 l29 -5 0 -50 0 -50 -26 6 c-15
4 -39 10 -55 13 l-29 6 0 49 0 50 26 -6 c15 -4 39 -10 55 -13z m215 -33 l34 0
0 -50 0 -50 -34 0 c-19 0 -41 3 -50 6 l-16 6 0 50 0 50 16 -6 c9 -3 31 -6 50
-6z m264 -60 l0 -50 -50 0 -50 0 0 50 0 50 50 0 50 0 0 -50z m3854 -2010 c6
-6 8 -10 6 -11 -62 -9 -458 -12 -2365 -15 -1249 -3 -2317 -2 -2375 2 l-105 6
25 10 c53 20 460 23 2595 20 l2209 -2 10 -10z" />
    <path d="M1646 3470 c-26 -10 -57 -27 -67 -36 l-19 -17 0 -33 c0 -18 5 -36 10
-39 6 -4 22 -29 35 -56 l25 -49 30 0 30 0 10 26 c6 14 10 39 10 55 0 17 4 38
9 47 5 9 12 41 16 70 l7 52 -24 0 c-12 -1 -45 -9 -72 -20z" />
    <path d="M2660 3311 l-45 -18 -3 -45 -3 -45 -32 -10 c-17 -5 -33 -16 -35 -24
l-3 -15 26 -12 c14 -7 32 -12 40 -12 l15 0 0 34 0 34 28 6 c15 3 37 8 50 12
l22 6 0 -51 0 -51 -15 0 c-8 0 -15 -7 -15 -15 0 -8 7 -15 15 -15 8 0 15 4 15
9 0 5 9 11 19 14 l19 5 31 65 c17 36 31 70 31 77 l0 12 -22 -6 c-13 -3 -33 -9
-45 -12 l-23 -6 0 41 0 41 -12 -1 c-7 0 -33 -8 -58 -18z" />
    <path d="M2480 3220 l0 -20 15 0 15 0 0 20 0 20 -15 0 -15 0 0 -20z" />
    <path d="M2183 3178 l-33 -11 0 -58 0 -58 -55 -17 -54 -17 -3 -60 -3 -60 -45
-13 -45 -13 -3 9 c-15 43 -72 -60 -91 -163 l-11 -59 104 -122 c57 -67 115
-128 130 -135 14 -8 26 -17 26 -21 0 -3 25 -43 55 -89 30 -46 55 -89 55 -97
l0 -14 25 0 25 0 34 48 c57 77 113 201 137 297 28 115 42 142 129 245 39 47
80 102 91 123 l20 38 -3 31 -3 31 -105 19 c-58 10 -119 16 -136 13 l-31 -5
-42 -89 c-49 -106 -66 -176 -81 -331 l-10 -115 -21 -17 -21 -18 -34 0 -34 0
-6 27 c-4 15 -1 115 6 222 8 108 13 229 11 269 l-2 72 14 0 15 0 17 50 c9 27
21 52 26 55 14 9 11 45 -3 44 -7 -1 -28 -6 -45 -11z" />
    <path d="M2718 2203 c-20 -21 -41 -48 -47 -60 l-12 -23 -54 -25 -54 -26 -67
-72 -66 -72 5 -46 c10 -88 59 -285 89 -357 33 -79 104 -184 138 -202 l21 -11
417 -11 417 -11 50 9 50 9 3 41 3 41 -37 54 c-51 76 -69 122 -94 241 -12 56
-29 120 -37 141 -24 58 -88 107 -260 195 -87 45 -207 113 -267 152 l-110 70
-26 0 -26 0 -36 -37z" />
  </g>
  <g transform="translate(0.000000,500.000000) scale(0.100000,-0.100000)" fill="#04092f" stroke="none">
    <path d="M3417 4399 c-82 -19 -165 -89 -198 -165 -25 -59 -24 -68 11 -174 16
-50 34 -117 40 -151 l11 -61 -16 -24 -15 -24 -93 -45 c-51 -25 -135 -59 -186
-75 -52 -17 -105 -39 -120 -48 -34 -23 -356 -175 -413 -195 -10 -4 -18 -3 -18
1 -5 71 -18 131 -42 197 -17 44 -32 100 -35 125 l-5 45 76 23 76 24 22 23 23
24 26 83 26 83 -14 65 c-8 36 -28 92 -44 126 l-29 61 -52 7 c-127 15 -247 -5
-268 -44 -4 -8 -15 -82 -25 -165 -16 -149 -29 -233 -36 -240 -2 -2 -49 -8
-104 -15 -118 -14 -130 -18 -277 -105 -196 -117 -289 -193 -348 -286 l-33 -50
15 -37 c24 -61 126 -218 153 -236 14 -9 25 -22 25 -28 0 -6 16 -25 36 -42 l37
-32 -36 -50 c-20 -27 -55 -64 -79 -81 -51 -36 -135 -141 -220 -273 l-61 -95
-71 -71 c-39 -39 -96 -87 -126 -107 l-55 -36 -160 -16 c-196 -19 -237 -28
-345 -76 l-85 -38 -90 -11 c-50 -6 -111 -15 -136 -21 l-45 -10 -13 -37 c-7
-20 -26 -62 -41 -93 -23 -45 -60 -149 -60 -166 0 -2 7 -3 16 -3 9 0 40 23 68
52 l50 51 103 49 102 49 113 29 c62 15 176 35 253 44 77 9 183 21 235 27 52 6
124 17 160 25 l65 15 105 53 c58 29 153 78 212 109 l108 57 52 -20 c28 -11 88
-42 132 -69 45 -27 115 -66 156 -86 103 -51 136 -78 166 -136 13 -28 34 -53
44 -57 l19 -7 -23 -50 c-39 -84 -64 -97 -220 -120 -156 -23 -214 -35 -308 -67
l-87 -29 -168 -10 c-92 -6 -173 -12 -178 -14 -12 -3 -144 -184 -168 -230 -8
-17 -18 -47 -22 -68 l-7 -37 17 0 c9 0 78 35 152 77 148 84 178 94 345 118 62
9 125 18 141 21 l27 6 0 -16 0 -16 17 0 c9 0 32 14 50 32 l32 31 25 -11 25
-11 128 20 c195 30 258 45 306 73 24 14 46 26 50 26 3 0 13 -26 22 -57 9 -32
23 -70 31 -85 15 -29 66 -252 68 -298 l1 -25 -120 0 c-66 0 -201 2 -300 4
-145 3 -1533 -13 -1542 -18 -2 0 -3 -7 -3 -15 l0 -14 308 -6 c169 -3 397 -10
507 -15 l200 -10 60 11 60 10 99 -6 c54 -3 103 -9 110 -14 l11 -10 65 8 c55 7
318 9 1515 14 88 0 182 -3 209 -7 l49 -9 23 -23 24 -24 0 -39 0 -39 -42 -6
c-24 -4 -394 -11 -823 -17 -429 -5 -883 -15 -1010 -20 -126 -6 -325 -10 -442
-10 l-212 0 -7 -11 c-3 -6 -1 -16 5 -22 l12 -12 1262 -5 1262 -5 67 -23 67
-22 18 -23 c35 -44 111 -75 148 -61 l15 6 0 29 0 28 28 15 c15 7 59 19 97 25
67 11 405 31 528 31 l57 0 0 10 c0 15 -30 19 -317 35 -288 16 -399 28 -461 49
l-37 13 -22 33 -23 32 10 18 c14 26 30 30 195 41 160 10 206 18 212 36 l4 11
-113 6 c-157 10 -305 26 -333 36 l-24 9 -11 43 c-27 102 -141 481 -160 531
l-21 55 -67 78 c-37 44 -107 120 -157 169 l-90 90 -81 48 -82 47 -82 87 -82
87 5 43 5 43 33 56 34 56 55 43 c72 56 113 100 199 213 l71 94 11 -26 c7 -13
19 -28 28 -31 9 -4 95 -9 191 -12 l175 -5 125 25 c69 15 158 30 198 36 40 5
85 17 98 26 32 20 56 77 52 119 l-3 31 -55 -1 c-30 -1 -87 -11 -127 -22 -39
-12 -124 -26 -188 -32 l-117 -10 -104 6 -104 7 -1 51 c0 28 -2 60 -3 71 -2 11
-6 63 -10 115 -4 52 -12 126 -17 164 l-9 70 25 50 25 51 59 33 60 32 17 77 17
77 -6 105 c-7 116 -26 194 -57 234 l-20 25 -47 16 c-50 17 -116 19 -176 5z
m-1687 -923 c0 -26 -43 -213 -54 -233 l-13 -26 -28 49 c-15 27 -36 61 -46 76
-37 53 -19 84 67 118 48 19 74 24 74 16z m1084 -198 c-33 -93 -62 -144 -91
-163 l-23 -15 -27 6 c-35 8 -155 77 -173 99 l-14 17 15 9 c20 12 218 89 232
89 7 1 23 7 37 15 14 8 35 14 47 15 l23 0 -26 -72z m-565 -55 c-12 -32 -25
-63 -30 -68 -12 -16 -47 -117 -54 -155 -18 -107 -41 -496 -32 -532 l7 -28 44
0 44 0 21 18 20 17 11 110 c6 61 17 142 25 180 l15 70 48 95 47 95 15 -2 c8
-1 62 -11 120 -21 l105 -19 3 -21 c5 -31 -29 -88 -108 -182 -87 -103 -101
-130 -129 -245 -24 -96 -80 -220 -137 -297 -33 -46 -64 -63 -64 -34 0 8 -25
51 -55 97 -30 46 -55 86 -55 89 0 3 -13 13 -28 22 -16 10 -74 70 -129 135
l-100 118 13 61 c19 95 52 153 132 230 59 58 159 189 189 249 33 65 42 75 64
75 l19 0 -21 -57z m657 -1063 c60 -39 180 -107 267 -152 172 -88 236 -137 260
-195 8 -21 25 -85 37 -141 25 -119 43 -165 94 -241 l37 -55 -3 -30 -3 -31 -50
-9 -50 -9 -407 11 -408 11 -20 11 c-34 18 -105 123 -138 202 -27 66 -72 240
-87 343 l-6 40 66 72 66 72 54 26 54 25 12 23 c18 35 81 97 99 97 9 0 65 -32
126 -70z" />
    <path d="M365 778 c-173 -7 -235 -16 -235 -37 l0 -9 113 -7 c110 -6 4634 0
4712 7 l40 3 3 17 c2 9 -1 19 -6 22 -14 8 -4414 12 -4627 4z" />
  </g>
  <g transform="translate(0.000000,500.000000) scale(0.100000,-0.100000)" fill="#fe1515" stroke="none">
    <path d="M3798 3943 l-48 -4 0 -59 0 -58 -55 -4 -55 -3 0 13 c0 15 -6 15 -31
2 -25 -14 -24 -30 1 -30 l20 0 0 -49 0 -50 -17 -5 c-10 -3 -35 -6 -55 -8 l-38
-2 0 -57 c0 -32 3 -60 8 -62 4 -3 28 -2 55 3 l47 7 0 -52 0 -53 -22 -6 c-13
-3 -33 -6 -46 -6 l-23 0 3 -57 3 -58 24 -3 c12 -2 34 -1 47 2 l23 6 3 58 3 57
53 3 52 3 0 -55 0 -56 14 0 c7 0 34 3 60 6 l46 7 0 53 0 54 50 0 50 0 0 -55 0
-55 44 0 c24 0 51 -3 60 -6 l16 -6 0 62 0 63 31 -7 c17 -3 42 -6 55 -6 l24 0
0 -59 0 -59 46 -7 c26 -3 53 -9 60 -12 l14 -5 0 60 0 60 23 -5 c12 -3 37 -9
55 -15 l32 -10 0 -57 0 -57 43 -11 c23 -7 50 -15 60 -18 l17 -7 0 56 c0 31 3
56 7 56 4 0 27 -7 50 -16 l43 -17 0 -58 0 -59 56 -25 c31 -14 60 -25 65 -25 5
0 9 23 9 50 0 28 3 50 7 50 3 0 26 -11 50 -25 l43 -26 0 -58 0 -58 51 -32 c28
-17 55 -31 60 -31 l9 0 0 58 0 58 -55 33 -55 33 0 55 0 54 43 -29 c23 -16 48
-32 55 -36 l12 -7 0 60 0 61 -55 36 -55 37 0 48 c0 52 4 57 35 36 11 -8 32
-22 48 -32 l27 -17 0 61 0 61 -47 30 c-26 17 -53 30 -60 30 l-13 0 0 -49 0
-49 -53 29 -53 28 4 55 4 55 -51 25 c-28 14 -57 26 -66 26 l-15 0 0 -51 0 -51
-12 5 c-7 2 -30 10 -50 18 l-38 13 0 57 0 57 -47 16 c-26 9 -53 16 -60 16
l-13 0 0 -54 0 -53 -52 12 -53 11 -3 57 -3 56 -17 5 c-9 2 -36 8 -59 11 l-43
7 0 -56 0 -56 -24 0 c-13 0 -38 3 -55 6 l-31 7 0 52 0 53 -50 7 c-27 4 -54 4
-60 0 -5 -3 -10 -31 -10 -61 l0 -54 -50 0 -50 0 -1 18 c0 9 -1 35 -2 56 -2 44
-3 44 -69 39z m292 -178 l0 -53 16 -6 c9 -3 33 -6 55 -6 l39 0 0 -56 0 -57
-37 7 c-21 3 -46 6 -55 6 l-18 0 0 54 0 54 -16 6 c-9 3 -33 6 -55 6 l-39 0 0
53 0 52 55 -3 55 -4 0 -53z m-230 6 l0 -48 -37 -7 c-21 -3 -46 -6 -55 -6 l-18
0 0 55 0 55 55 0 55 0 0 -49z m433 22 l17 -4 0 -51 0 -51 -47 7 c-55 7 -63 16
-63 74 l0 43 38 -6 c20 -4 45 -9 55 -12z m225 -54 l22 -9 0 -51 0 -51 -32 7
c-18 4 -43 11 -55 16 l-23 9 0 51 0 51 33 -7 c17 -4 42 -11 55 -16z m-548 -84
l0 -55 -50 0 c-27 0 -50 3 -51 8 0 4 -1 28 -2 55 l-2 47 53 0 52 0 0 -55z
m-220 -4 l0 -49 -16 -6 c-9 -3 -33 -6 -55 -6 l-39 0 0 49 0 50 18 4 c9 3 34 5
55 6 l37 1 0 -49z m973 4 l47 -20 0 -52 c0 -29 -2 -53 -5 -53 -3 0 -28 11 -55
25 l-50 25 0 51 c0 28 4 49 8 47 4 -1 29 -12 55 -23z m-330 4 l37 -10 0 -54 0
-54 -12 4 c-7 2 -32 9 -55 15 l-43 11 0 49 0 50 18 0 c9 0 34 -5 55 -11z m220
-70 l37 -13 0 -54 0 -54 -12 6 c-7 2 -30 10 -50 17 l-38 12 0 55 0 54 13 -5
c6 -2 29 -10 50 -18z m-753 -44 l0 -55 -32 0 c-18 0 -43 -3 -55 -6 l-23 -6 0
55 0 56 48 4 c26 2 50 4 55 5 4 1 7 -23 7 -53z m193 49 l37 -7 0 -48 0 -49
-55 0 -55 0 0 55 0 55 18 0 c9 0 34 -3 55 -6z m250 -31 c4 -2 7 -27 7 -55 l0
-50 -47 7 c-27 4 -49 8 -50 9 -1 1 -3 25 -5 54 l-4 53 45 -7 c25 -4 49 -8 54
-11z m210 -52 l27 -11 0 -50 c0 -56 2 -55 -60 -36 l-45 13 -3 53 -3 53 28 -6
c15 -3 40 -10 56 -16z m321 -27 l46 -26 0 -49 c0 -27 -2 -49 -5 -49 -3 0 -23
9 -45 20 -22 11 -44 20 -50 20 l-10 0 0 -49 0 -50 -52 23 -53 23 -3 53 -3 52
23 -7 c13 -4 35 -14 50 -21 15 -8 31 -14 37 -14 l10 0 -3 50 c-1 28 1 50 5 50
3 0 27 -12 53 -26z" />
    <path d="M3105 3816 l-40 -13 -3 -51 c-2 -29 -1 -52 2 -52 2 0 32 12 66 27
l61 26 -6 14 c-3 8 -5 26 -5 39 l0 24 -17 -1 c-10 -1 -36 -7 -58 -13z" />
    <path d="M2893 3752 l-51 -16 -4 -63 c-2 -35 -2 -63 -1 -63 1 0 24 11 51 25
28 14 55 25 61 25 l11 0 0 55 c0 30 -3 54 -7 54 -5 -1 -31 -9 -60 -17z" />
    <path d="M2653 3673 l-43 -15 0 -58 0 -58 -47 -16 c-26 -9 -50 -16 -55 -16 -4
0 -8 24 -8 54 l0 53 -55 -16 -55 -16 6 -50 c4 -27 10 -54 15 -59 l8 -9 42 17
41 17 -4 -26 c-6 -31 -8 -31 63 1 l59 27 0 18 0 17 48 16 c26 8 56 14 66 13
10 -1 21 4 24 12 l5 14 -17 -6 -16 -6 0 54 0 55 -17 -1 c-10 0 -37 -7 -60 -16z" />
    <path d="M110 3490 c0 -27 -3 -50 -6 -50 -3 0 -25 14 -49 30 -24 17 -46 30
-49 30 -3 0 -6 -27 -6 -59 l0 -60 55 -33 54 -33 1 -53 0 -54 -37 23 c-21 12
-42 26 -47 31 -20 17 -26 6 -26 -51 l0 -59 50 -31 c28 -17 55 -31 60 -31 l10
0 0 50 0 50 50 -25 50 -25 0 -55 0 -54 -42 24 c-24 14 -49 25 -55 25 l-13 0 0
-57 0 -58 50 -27 c28 -16 55 -28 60 -28 l10 0 0 55 0 55 55 -27 55 -27 0 -58
0 -58 37 -15 c20 -9 47 -18 60 -21 l23 -6 0 56 c0 31 1 56 3 56 1 0 22 -6 47
-14 l45 -13 3 -60 3 -60 50 -11 c28 -7 57 -12 65 -12 l14 0 0 55 0 56 38 -6
c20 -4 43 -8 50 -10 l12 -4 0 -55 0 -54 16 -6 c9 -3 36 -6 60 -6 l44 0 0 56 0
55 53 -3 52 -3 3 -57 3 -58 59 0 60 0 0 60 0 60 55 0 55 0 0 -56 0 -57 50 6
c28 3 55 9 60 12 6 3 10 31 10 61 l0 54 30 0 c40 0 42 0 63 11 l17 10 0 54 0
54 53 8 c28 4 54 7 57 6 3 -1 5 21 4 49 l0 50 -18 10 -18 10 -39 -6 -39 -6 0
56 0 55 -55 -6 -55 -7 0 57 0 58 -37 -7 c-21 -3 -48 -6 -60 -6 l-23 0 0 -60 0
-60 -55 0 -55 0 0 55 0 55 -60 0 -60 0 0 -57 0 -58 -55 3 -54 4 -3 56 -3 57
-57 5 -58 5 0 -58 0 -57 -25 5 c-14 3 -36 7 -50 10 l-24 5 -3 57 -3 57 -50 13
c-27 7 -56 13 -62 13 l-13 0 0 -55 c0 -30 -1 -55 -3 -55 -2 0 -24 7 -50 16
l-47 16 0 57 0 57 -52 20 c-29 10 -56 21 -60 22 -4 2 -8 -21 -8 -52 0 -31 -2
-56 -5 -56 -3 0 -28 11 -55 25 l-50 25 0 58 0 57 -53 28 c-29 15 -56 27 -60
27 -4 0 -7 -22 -7 -50z m110 -178 l0 -53 -50 28 -50 28 0 52 0 53 50 -28 50
-27 0 -53z m228 -47 c2 -1 2 -25 0 -53 l-3 -49 -52 20 -53 20 0 53 0 54 53
-21 c28 -11 53 -22 55 -24z m-150 -50 l42 -17 0 -54 0 -54 -52 23 -53 23 -3
53 -3 54 13 -6 c7 -2 32 -13 56 -22z m343 -1 l39 -7 0 -53 c0 -30 -2 -54 -5
-54 -2 0 -27 5 -55 11 l-50 11 0 55 0 55 16 -6 c9 -3 33 -9 55 -12z m719 -78
l0 -53 -37 -7 c-21 -3 -46 -6 -55 -6 l-18 0 0 54 0 55 48 4 c26 2 50 4 55 5 4
1 7 -22 7 -52z m-472 38 l22 -6 0 -49 0 -49 -39 0 c-22 0 -46 3 -55 6 l-16 6
0 49 0 49 33 0 c17 0 42 -3 55 -6z m242 -59 l0 -55 -49 0 -49 0 -4 51 c-1 28
-1 53 1 55 2 2 26 4 53 4 l48 0 0 -55z m-617 19 l47 -16 0 -53 0 -53 -50 16
-50 16 0 53 c0 29 1 53 3 53 2 0 24 -7 50 -16z m245 -59 l32 -7 0 -49 0 -49
-27 0 c-16 0 -38 3 -50 6 l-23 6 0 55 0 54 18 -5 c9 -2 32 -7 50 -11z m712
-40 l0 -55 -12 0 c-7 0 -30 -3 -50 -6 l-38 -7 0 56 0 56 38 4 c20 2 43 4 50 5
l12 2 0 -55z m-1062 20 l42 -17 0 -53 0 -53 -55 21 -55 22 0 54 0 53 13 -5 c6
-3 31 -13 55 -22z m595 -5 l17 0 0 -50 0 -50 -55 0 -55 0 0 56 0 57 38 -7 c20
-3 45 -6 55 -6z m247 -46 l0 -57 55 7 55 6 0 -55 0 -55 -24 0 c-13 0 -38 -3
-55 -6 l-31 -6 0 56 0 56 -55 0 -55 0 0 48 c0 27 3 52 7 55 3 4 28 7 55 7 l48
0 0 -56z m-599 -21 l29 -5 0 -55 0 -55 -26 6 c-15 4 -39 10 -55 13 l-29 6 0
54 0 55 26 -6 c15 -4 39 -10 55 -13z m257 -90 l3 -53 -33 0 c-18 0 -43 3 -55
6 l-23 6 0 52 0 52 53 -6 52 -5 3 -52z m222 -8 l0 -55 -49 0 -49 0 -4 55 -3
55 53 0 52 0 0 -55z" />
    <path d="M2810 3363 c-8 -2 -32 -11 -52 -20 l-38 -16 0 -44 0 -43 -25 -10
c-14 -5 -37 -13 -50 -16 l-25 -6 0 42 0 41 -22 -6 c-13 -4 -41 -15 -63 -24
l-40 -18 -1 -27 -2 -27 23 -15 22 -14 29 15 c41 21 44 20 44 -25 l0 -39 33 -9
32 -8 27 10 27 10 3 60 3 59 43 15 43 14 10 24 c5 14 11 35 15 48 l5 23 -13 5
c-7 3 -20 3 -28 1z" />
    <path d="M2245 3290 l-30 -5 -35 -66 c-19 -36 -56 -92 -82 -125 -27 -32 -48
-65 -48 -71 0 -7 -4 -13 -9 -13 -5 0 -32 -22 -60 -49 l-51 -50 0 -25 0 -26 13
0 c6 0 32 6 57 14 l45 13 3 60 3 59 49 16 50 16 0 -30 0 -30 12 4 c7 3 15 19
19 36 l6 32 -13 0 -14 0 0 54 0 54 33 8 c17 4 36 8 42 8 11 1 47 94 43 110
l-3 11 -30 -5z" />
    <path d="M1650 3225 c0 -8 7 -15 15 -15 8 0 15 7 15 15 0 8 -7 15 -15 15 -8 0
-15 -7 -15 -15z" />
    <path d="M2414 3036 c-8 -22 3 -33 18 -18 l12 12 -12 12 -11 11 -7 -17z" />
  </g>
  <g transform="translate(0.000000,500.000000) scale(0.100000,-0.100000)" fill="#424762" stroke="none">
    <path d="M2328 4323 c12 -2 30 -2 40 0 9 3 -1 5 -23 4 l-40 0 23 -4z" />
    <path d="M2465 4313 c11 -2 31 -16 44 -31 l23 -27 -18 33 -18 32 -26 -1 -25
-1 20 -5z" />
    <path d="M3712 4065 l0 -30 5 18 c2 9 2 23 0 30 -3 6 -5 -1 -5 -18z" />
    <path d="M3510 3670 c0 -11 5 -20 10 -20 6 0 10 9 10 20 0 11 -4 20 -10 20 -5
0 -10 -9 -10 -20z" />
    <path d="M1600 3314 c0 -6 7 -19 16 -30 l15 -19 -12 25 c-14 31 -19 36 -19 24z" />
    <path d="M4183 3273 c9 -2 25 -2 35 0 9 3 1 5 -18 5 -19 0 -27 -2 -17 -5z" />
    <path d="M3618 3043 c12 -2 32 -2 45 0 12 2 2 4 -23 4 -25 0 -35 -2 -22 -4z" />
    <path d="M3708 3043 c12 -2 32 -2 45 0 12 2 2 4 -23 4 -25 0 -35 -2 -22 -4z" />
    <path d="M2142 2715 l0 -30 5 18 c2 9 2 23 0 30 -3 6 -5 -1 -5 -18z" />
    <path d="M2972 2590 c0 -19 2 -27 5 -17 2 9 2 25 0 35 -3 9 -5 1 -5 -18z" />
    <path d="M1911 2256 c10 -9 109 -56 109 -51 0 5 -95 55 -106 55 -4 0 -5 -2 -3
-4z" />
    <path d="M2880 2183 c0 -5 14 -17 30 -26 17 -10 30 -16 30 -13 0 2 -13 14 -30
26 -16 12 -30 18 -30 13z" />
    <path d="M3121 2036 c10 -9 129 -66 129 -61 0 5 -116 65 -126 65 -4 0 -5 -2
-3 -4z" />
    <path d="M1253 1753 c9 -2 23 -2 30 0 6 3 -1 5 -18 5 l-30 0 18 -5z" />
    <path d="M1127 1700 c-10 -16 -16 -30 -13 -30 2 0 14 14 26 30 12 17 18 30 13
30 -5 0 -17 -13 -26 -30z" />
    <path d="M1027 1560 c-10 -16 -16 -30 -14 -30 2 0 13 14 25 30 13 17 19 30 14
30 -4 0 -16 -13 -25 -30z" />
    <path d="M2043 1303 c9 -2 25 -2 35 0 9 3 1 5 -18 5 -19 0 -27 -2 -17 -5z" />
    <path d="M2903 1303 c15 -2 39 -2 55 0 15 2 2 4 -28 4 -30 0 -43 -2 -27 -4z" />
    <path d="M1518 1293 c12 -2 32 -2 45 0 12 2 2 4 -23 4 -25 0 -35 -2 -22 -4z" />
    <path d="M2268 1293 c23 -2 61 -2 85 0 23 2 4 4 -43 4 -47 0 -66 -2 -42 -4z" />
    <path d="M3378 1293 c23 -2 59 -2 80 0 20 2 1 4 -43 4 -44 0 -61 -2 -37 -4z" />
    <path d="M4053 1283 c9 -2 23 -2 30 0 6 3 -1 5 -18 5 l-30 0 18 -5z" />
    <path d="M527 1263 c18 -2 50 -2 70 0 21 2 7 4 -32 4 -38 0 -55 -2 -38 -4z" />
    <path d="M1108 1253 c12 -2 32 -2 45 0 12 2 2 4 -23 4 -25 0 -35 -2 -22 -4z" />
    <path d="M1613 1253 c15 -2 37 -2 50 0 12 2 0 4 -28 4 -27 0 -38 -2 -22 -4z" />
    <path d="M1313 1243 c9 -2 25 -2 35 0 9 3 1 5 -18 5 -19 0 -27 -2 -17 -5z" />
    <path d="M2038 1243 c28 -2 76 -2 105 0 28 2 5 3 -53 3 -58 0 -81 -1 -52 -3z" />
    <path d="M2908 1243 c17 -2 47 -2 65 0 17 2 3 4 -33 4 -36 0 -50 -2 -32 -4z" />
    <path d="M4018 1233 c12 -2 30 -2 40 0 9 3 -1 5 -23 4 l-40 0 23 -4z" />
    <path d="M3528 1083 c12 -2 32 -2 45 0 12 2 2 4 -23 4 -25 0 -35 -2 -22 -4z" />
    <path d="M3028 1073 c29 -2 74 -2 100 0 26 2 2 3 -53 3 -55 0 -76 -1 -47 -3z" />
    <path d="M2203 1063 c26 -2 68 -2 95 0 26 2 4 3 -48 3 -52 0 -74 -1 -47 -3z" />
    <path d="M1768 1053 c12 -2 30 -2 40 0 9 3 -1 5 -23 4 l-40 0 23 -4z" />
    <path d="M1483 1043 c26 -2 67 -2 90 0 23 2 2 3 -48 3 -49 0 -68 -1 -42 -3z" />
    <path d="M4253 1043 c9 -2 25 -2 35 0 9 3 1 5 -18 5 -19 0 -27 -2 -17 -5z" />
    <path d="M4443 1033 c9 -2 25 -2 35 0 9 3 1 5 -18 5 -19 0 -27 -2 -17 -5z" />
    <path d="M3583 1003 c9 -2 25 -2 35 0 9 3 1 5 -18 5 -19 0 -27 -2 -17 -5z" />
    <path d="M4608 1003 c12 -2 30 -2 40 0 9 3 -1 5 -23 4 l-40 0 23 -4z" />
    <path d="M4358 993 c12 -2 30 -2 40 0 9 3 -1 5 -23 4 l-40 0 23 -4z" />
    <path d="M3760 977 c0 -3 15 -10 32 -16 18 -6 28 -7 23 -2 -12 10 -55 25 -55
18z" />
    <path d="M398 773 c12 -2 32 -2 45 0 12 2 2 4 -23 4 -25 0 -35 -2 -22 -4z" />
    <path d="M1852 773 c560 -2 1476 -2 2035 0 560 1 102 2 -1017 2 -1119 0 -1577
-1 -1018 -2z" />
    <path d="M1388 723 c84 -2 219 -2 300 0 81 1 12 3 -153 3 -165 0 -231 -2 -147
-3z" />
    <path d="M3473 723 c15 -2 37 -2 50 0 12 2 0 4 -28 4 -27 0 -38 -2 -22 -4z" />
  </g>
  <g transform="translate(0.000000,500.000000) scale(0.100000,-0.100000)" fill="#c0c2c9" stroke="none">
    <path d="M3202 4170 c0 -19 2 -27 5 -17 2 9 2 25 0 35 -3 9 -5 1 -5 -18z" />
    <path d="M2332 3760 c0 -19 2 -27 5 -17 2 9 2 25 0 35 -3 9 -5 1 -5 -18z" />
    <path d="M1592 3443 c-7 -2 -17 -14 -23 -26 l-12 -22 27 24 c14 14 26 26 26
28 0 3 0 3 -18 -4z" />
    <path d="M3628 3213 c12 -2 32 -2 45 0 12 2 2 4 -23 4 -25 0 -35 -2 -22 -4z" />
    <path d="M3833 3213 c9 -2 25 -2 35 0 9 3 1 5 -18 5 -19 0 -27 -2 -17 -5z" />
    <path d="M3533 3043 c9 -2 23 -2 30 0 6 3 -1 5 -18 5 l-30 0 18 -5z" />
    <path d="M2657 2970 c3 -11 7 -20 9 -20 2 0 4 9 4 20 0 11 -4 20 -9 20 -5 0
-7 -9 -4 -20z" />
    <path d="M2142 2785 l0 -30 5 18 c2 9 2 23 0 30 -3 6 -5 -1 -5 -18z" />
    <path d="M2132 2620 c0 -19 2 -27 5 -17 2 9 2 25 0 35 -3 9 -5 1 -5 -18z" />
    <path d="M1779 2331 c13 -12 28 -21 35 -21 l11 0 -15 10 c-8 6 -24 15 -35 21
l-20 10 24 -20z" />
    <path d="M138 1972 c-16 -9 -28 -20 -28 -25 0 -4 14 2 30 15 26 19 36 29 28
28 -2 0 -15 -8 -30 -18z" />
    <path d="M38 1879 c-10 -10 -14 -19 -10 -19 5 0 17 9 27 20 10 11 14 20 9 19
-5 0 -17 -9 -26 -20z" />
    <path d="M1693 1833 c9 -2 23 -2 30 0 6 3 -1 5 -18 5 l-30 0 18 -5z" />
    <path d="M1343 1763 c9 -2 25 -2 35 0 9 3 1 5 -18 5 -19 0 -27 -2 -17 -5z" />
    <path d="M1790 1660 c8 -5 22 -9 30 -9 l15 0 -20 9 c-27 12 -43 12 -25 0z" />
    <path d="M1660 1628 l0 -18 19 0 c11 0 23 4 26 10 l6 10 -16 -7 -17 -6 -9 14
-9 14 0 -17z" />
    <path d="M3598 1345 c-2 -19 0 -35 4 -35 4 0 8 16 8 35 0 19 -2 35 -4 35 -2 0
-6 -16 -8 -35z" />
    <path d="M1858 1313 c23 -2 59 -2 80 0 20 2 1 4 -43 4 -44 0 -61 -2 -37 -4z" />
    <path d="M2768 1313 c12 -2 30 -2 40 0 9 3 -1 5 -23 4 l-40 0 23 -4z" />
    <path d="M1668 1303 c12 -2 32 -2 45 0 12 2 2 4 -23 4 -25 0 -35 -2 -22 -4z" />
    <path d="M2143 1303 c9 -2 23 -2 30 0 6 3 -1 5 -18 5 l-30 0 18 -5z" />
    <path d="M3098 1303 c17 -2 47 -2 65 0 17 2 3 4 -33 4 -36 0 -50 -2 -32 -4z" />
    <path d="M768 1293 c122 -2 322 -2 445 0 122 1 22 2 -223 2 -245 0 -345 -1
-222 -2z" />
    <path d="M4133 1283 c9 -2 23 -2 30 0 6 3 -1 5 -18 5 l-30 0 18 -5z" />
    <path d="M788 1253 c23 -2 61 -2 85 0 23 2 4 4 -43 4 -47 0 -66 -2 -42 -4z" />
    <path d="M1233 1243 c9 -2 23 -2 30 0 6 3 -1 5 -18 5 l-30 0 18 -5z" />
    <path d="M3123 1243 c20 -2 54 -2 75 0 20 2 3 4 -38 4 -41 0 -58 -2 -37 -4z" />
    <path d="M3523 1243 c9 -2 23 -2 30 0 6 3 -1 5 -18 5 l-30 0 18 -5z" />
    <path d="M1413 1233 c15 -2 37 -2 50 0 12 2 0 4 -28 4 -27 0 -38 -2 -22 -4z" />
    <path d="M1863 1233 c9 -2 25 -2 35 0 9 3 1 5 -18 5 -19 0 -27 -2 -17 -5z" />
    <path d="M2468 1233 c34 -2 88 -2 120 0 31 2 3 3 -63 3 -66 0 -92 -1 -57 -3z" />
    <path d="M2677 1233 c18 -2 50 -2 70 0 21 2 7 4 -32 4 -38 0 -55 -2 -38 -4z" />
    <path d="M3676 1195 c9 -14 18 -25 20 -25 2 0 -2 11 -8 25 -6 14 -15 25 -20
25 -5 0 -1 -11 8 -25z" />
    <path d="M3692 1125 l0 -30 5 18 c2 9 2 23 0 30 -3 6 -5 -1 -5 -18z" />
    <path d="M3643 1093 c9 -2 23 -2 30 0 6 3 -1 5 -18 5 l-30 0 18 -5z" />
    <path d="M3327 1083 c18 -2 50 -2 70 0 21 2 7 4 -32 4 -38 0 -55 -2 -38 -4z" />
    <path d="M2598 1073 c34 -2 90 -2 125 0 34 2 6 3 -63 3 -69 0 -97 -1 -62 -3z" />
    <path d="M1928 1063 c17 -2 47 -2 65 0 17 2 3 4 -33 4 -36 0 -50 -2 -32 -4z" />
    <path d="M4343 1043 c9 -2 25 -2 35 0 9 3 1 5 -18 5 -19 0 -27 -2 -17 -5z" />
    <path d="M4533 1033 c9 -2 23 -2 30 0 6 3 -1 5 -18 5 l-30 0 18 -5z" />
    <path d="M1778 1003 c314 -2 830 -2 1145 0 314 1 57 2 -573 2 -630 0 -887 -1
-572 -2z" />
    <path d="M4478 993 c12 -2 30 -2 40 0 9 3 -1 5 -23 4 l-40 0 23 -4z" />
    <path d="M4263 983 c9 -2 23 -2 30 0 6 3 -1 5 -18 5 l-30 0 18 -5z" />
    <path d="M578 783 c23 -2 61 -2 85 0 23 2 4 4 -43 4 -47 0 -66 -2 -42 -4z" />
    <path d="M293 773 c9 -2 25 -2 35 0 9 3 1 5 -18 5 -19 0 -27 -2 -17 -5z" />
    <path d="M363 723 c70 -2 184 -2 255 0 70 1 12 3 -128 3 -140 0 -198 -2 -127
-3z" />
    <path d="M3303 723 c15 -2 37 -2 50 0 12 2 0 4 -28 4 -27 0 -38 -2 -22 -4z" />
  </g>
  <g transform="translate(0.000000,500.000000) scale(0.100000,-0.100000)" fill="#f8f1f1" stroke="none">
    <path d="M3334 4365 c-10 -8 -14 -15 -8 -15 5 0 19 7 30 15 10 8 14 15 8 15
-5 0 -19 -7 -30 -15z" />
    <path d="M3270 4315 l-12 -15 10 0 c5 0 15 7 22 15 l12 15 -10 0 c-5 0 -15 -7
-22 -15z" />
    <path d="M2542 4209 c6 -16 12 -28 14 -26 5 5 -13 57 -20 57 -3 0 0 -14 6 -31z" />
    <path d="M3216 4098 c13 -43 23 -68 28 -68 3 0 -2 20 -11 45 -15 45 -31 65
-17 23z" />
    <path d="M3847 3943 c6 -4 13 -24 16 -43 l5 -35 -2 39 -1 39 -15 4 -15 5 12
-9z" />
    <path d="M2484 3865 c-10 -8 -14 -14 -9 -14 6 0 19 6 29 14 11 8 15 15 10 15
-6 0 -19 -7 -30 -15z" />
    <path d="M3861 3848 l-1 -17 -22 -3 -23 -4 28 -5 c32 -7 38 -2 26 26 l-8 20 0
-17z" />
    <path d="M2415 3835 l-30 -15 25 6 c14 4 29 10 35 15 12 12 5 11 -30 -6z" />
    <path d="M4008 3823 c12 -2 30 -2 40 0 9 3 -1 5 -23 4 l-40 0 23 -4z" />
    <path d="M3622 3811 l-14 -8 16 -6 16 -6 0 14 c0 17 -1 17 -18 6z" />
    <path d="M4650 3799 c0 -5 4 -9 9 -9 5 0 17 -3 27 -7 l17 -6 -6 10 c-9 14 -47
24 -47 12z" />
    <path d="M4773 3715 l0 -40 4 23 c2 12 2 30 0 40 -3 9 -5 -1 -4 -23z" />
    <path d="M3863 3665 l0 -40 4 23 c2 12 2 30 0 40 -3 9 -5 -1 -4 -23z" />
    <path d="M2663 3677 c-51 -19 -51 -28 0 -11 26 9 47 18 47 20 0 6 -12 4 -47
-9z" />
    <path d="M4310 3675 l0 -14 15 5 c8 4 15 7 15 9 0 2 -7 5 -15 9 l-15 5 0 -14z" />
    <path d="M4724 3656 c11 -9 24 -16 30 -16 12 0 7 5 -24 19 l-25 12 19 -15z" />
    <path d="M4950 3640 c14 -11 30 -20 35 -20 6 0 -1 9 -15 20 -14 11 -29 20 -35
20 -5 0 1 -9 15 -20z" />
    <path d="M4490 3635 c0 -2 14 -8 30 -14 l30 -10 0 12 0 12 -30 1 c-17 1 -30 0
-30 -1z" />
    <path d="M1500 3595 l-12 -15 10 0 c5 0 15 7 22 15 l12 15 -10 0 c-5 0 -15 -7
-22 -15z" />
    <path d="M3803 3593 c9 -2 23 -2 30 0 6 3 -1 5 -18 5 l-30 0 18 -5z" />
    <path d="M4053 3593 c9 -2 23 -2 30 0 6 3 -1 5 -18 5 l-30 0 18 -5z" />
    <path d="M4650 3577 c0 -8 7 -14 15 -14 l15 0 -11 14 c-6 7 -13 13 -15 13 -2
0 -4 -6 -4 -13z" />
    <path d="M2694 3561 c3 -4 -6 -13 -21 -20 -14 -6 -23 -14 -20 -17 5 -5 67 23
67 30 0 2 -7 7 -16 10 -8 3 -13 2 -10 -3z" />
    <path d="M110 3541 c0 -10 30 -24 37 -17 3 2 -5 9 -16 16 l-21 11 0 -10z" />
    <path d="M2609 3548 c0 -2 -2 -13 -3 -26 l-3 -23 10 4 c13 4 17 47 5 47 -4 0
-8 -1 -9 -2z" />
    <path d="M4199 3502 c-3 -18 -2 -35 3 -38 13 -9 15 -3 8 36 l-6 35 -5 -33z" />
    <path d="M4814 3496 c11 -9 24 -16 30 -16 12 0 7 5 -24 19 l-25 12 19 -15z" />
    <path d="M20 3480 c14 -11 30 -20 35 -20 6 0 -1 9 -15 20 -14 11 -29 20 -35
20 -6 0 1 -9 15 -20z" />
    <path d="M3915 3491 l-60 -6 6 -60 6 -60 1 58 2 59 55 -4 55 -3 0 13 c0 6 -1
11 -2 10 -2 -1 -30 -4 -63 -7z" />
    <path d="M1685 3483 c-11 -3 -24 -10 -30 -15 l-10 -10 25 7 c20 6 57 28 40 24
-3 -1 -14 -3 -25 -6z" />
    <path d="M4767 3427 c-6 -17 7 -41 20 -36 l9 4 -12 23 -11 23 -6 -14z" />
    <path d="M111 3368 c1 -68 6 -61 11 15 2 26 0 47 -4 47 -5 0 -7 -28 -7 -62z" />
    <path d="M164 3396 c11 -9 24 -16 30 -16 12 0 7 5 -24 19 l-25 12 19 -15z" />
    <path d="M1370 3385 c0 -13 32 -66 36 -62 6 6 -23 67 -31 67 -3 0 -5 -2 -5 -5z" />
    <path d="M4871 3361 l-13 -8 12 -8 c13 -8 24 -1 19 14 l-4 10 -14 -8z" />
    <path d="M678 3265 c2 -36 7 -65 10 -65 9 0 3 113 -6 122 -4 4 -5 -22 -4 -57z" />
    <path d="M4714 3315 c11 -8 25 -15 30 -15 6 0 2 7 -8 15 -11 8 -25 15 -30 15
-6 0 -2 -7 8 -15z" />
    <path d="M4950 3301 c14 -11 30 -21 35 -21 11 0 -7 14 -40 31 l-20 10 25 -20z" />
    <path d="M1358 3250 c2 -33 7 -60 10 -60 4 0 5 27 4 60 -2 33 -7 60 -10 60 -4
0 -5 -27 -4 -60z" />
    <path d="M2635 3297 l-30 -12 3 -42 3 -41 -21 -7 c-12 -4 -20 -9 -17 -11 2 -2
35 7 73 20 38 13 71 23 74 24 3 0 18 5 33 11 16 6 32 11 37 11 5 0 12 4 15 10
3 5 -12 3 -35 -5 -22 -8 -41 -14 -43 -14 -1 0 -15 -4 -30 -10 -15 -6 -39 -14
-52 -17 l-25 -6 0 36 0 36 25 10 c14 5 25 12 25 15 0 3 -1 5 -2 4 -2 0 -16 -6
-33 -12z" />
    <path d="M4765 3240 c0 -33 3 -60 8 -60 4 0 7 23 7 50 0 28 0 53 1 57 0 4 -3
9 -8 10 -4 2 -8 -24 -8 -57z" />
    <path d="M4240 3265 c7 -9 15 -13 17 -11 7 7 -7 26 -19 26 l-10 0 12 -15z" />
    <path d="M1680 3255 l-12 -15 10 0 c12 0 26 19 19 26 -2 2 -10 -2 -17 -11z" />
    <path d="M220 3244 c0 -8 4 -12 10 -9 5 3 19 1 31 -5 11 -7 23 -10 25 -8 2 3
-12 12 -31 21 l-35 17 0 -16z" />
    <path d="M1632 3248 c5 -15 28 -23 28 -10 0 5 -7 13 -16 16 l-16 6 4 -12z" />
    <path d="M4920 3206 c0 -2 18 -15 40 -30 22 -14 40 -23 40 -19 0 5 -16 18 -35
31 -34 21 -45 26 -45 18z" />
    <path d="M108 3144 c-1 -31 0 -58 4 -60 3 -2 8 23 10 56 1 33 0 60 -4 60 -3 0
-8 -25 -10 -56z" />
    <path d="M790 3185 l0 -14 15 5 c8 4 15 7 15 9 0 2 -7 5 -15 9 l-15 5 0 -14z" />
    <path d="M20 3141 c14 -11 30 -21 35 -21 11 0 -7 14 -40 31 l-20 10 25 -20z" />
    <path d="M2210 3140 c-6 -12 -9 -24 -7 -27 3 -2 11 5 17 17 6 12 9 24 7 27 -3
2 -11 -5 -17 -17z" />
    <path d="M1022 3108 l-2 -47 -32 -3 -33 -3 38 -6 c21 -3 39 -3 40 0 2 3 0 29
-4 56 l-6 50 -1 -47z" />
    <path d="M2585 3134 c23 -17 35 -18 35 -1 l0 12 -27 2 -28 1 20 -14z" />
    <path d="M2712 3123 c-6 -3 -10 -9 -7 -14 l6 -9 -15 6 -16 6 0 -11 c0 -16 35
-14 49 3 13 15 4 26 -17 19z" />
    <path d="M678 3035 c2 -36 7 -65 10 -65 4 0 5 29 4 65 -2 36 -7 65 -10 65 -4
0 -5 -29 -4 -65z" />
    <path d="M1355 3020 l0 -60 10 0 10 0 -3 60 c-5 78 -17 78 -17 0z" />
    <path d="M174 3045 c11 -8 25 -15 30 -15 6 0 2 7 -8 15 -11 8 -25 15 -30 15
-6 0 -2 -7 8 -15z" />
    <path d="M470 3037 c0 -3 15 -10 32 -16 18 -6 28 -7 23 -2 -12 10 -55 25 -55
18z" />
    <path d="M1600 3015 l-12 -15 10 0 c5 0 15 7 22 15 l12 15 -10 0 c-5 0 -15 -7
-22 -15z" />
    <path d="M782 2971 l-14 -8 16 -6 16 -6 0 14 c0 17 -1 17 -18 6z" />
    <path d="M1535 2934 c-16 -13 -25 -24 -19 -24 15 0 61 37 54 43 -3 3 -18 -6
-35 -19z" />
    <path d="M184 2925 c11 -8 25 -15 30 -15 6 0 2 7 -8 15 -11 8 -25 15 -30 15
-6 0 -2 -7 8 -15z" />
    <path d="M1020 2877 c-3 -33 -2 -61 2 -63 12 -7 14 9 8 66 l-6 55 -4 -58z" />
    <path d="M1470 2895 c0 -16 16 -20 24 -6 3 5 -1 11 -9 15 l-15 5 0 -14z" />
    <path d="M675 2810 c0 -78 12 -78 17 0 l3 60 -10 0 -10 0 0 -60z" />
    <path d="M1440 2854 l0 -15 10 6 c6 3 10 10 10 16 0 5 -4 9 -10 9 -5 0 -10 -7
-10 -16z" />
    <path d="M1360 2855 c-3 -15 1 -99 6 -104 9 -10 10 7 4 59 -4 30 -8 51 -10 45z" />
    <path d="M2550 2785 c-7 -9 -11 -18 -8 -20 3 -3 11 1 18 10 7 9 11 18 8 20 -3
3 -11 -1 -18 -10z" />
    <path d="M1336 2725 c4 -8 10 -12 15 -9 14 8 10 24 -6 24 l-14 0 5 -15z" />
    <path d="M1266 2605 c-9 -14 -13 -25 -9 -25 10 0 36 40 30 46 -2 3 -12 -7 -21
-21z" />
    <path d="M3050 2474 c0 -13 68 -79 75 -73 2 3 -13 23 -35 44 -22 22 -40 35
-40 29z" />
    <path d="M1580 2423 c-53 -20 -82 -34 -78 -38 5 -6 98 33 98 40 0 3 -1 5 -2 4
-2 0 -10 -3 -18 -6z" />
    <path d="M990 2340 c-14 -11 -20 -20 -15 -20 6 0 21 9 35 20 14 11 21 20 15
20 -5 0 -21 -9 -35 -20z" />
    <path d="M1314 2285 c-10 -8 -14 -15 -8 -15 5 0 19 7 30 15 10 8 14 15 8 15
-5 0 -19 -7 -30 -15z" />
    <path d="M3330 2255 c7 -8 17 -15 22 -15 l10 0 -12 15 c-7 8 -17 15 -22 15
l-10 0 12 -15z" />
    <path d="M484 2245 l-19 -14 23 6 c12 3 25 9 28 14 8 14 -10 11 -32 -6z" />
    <path d="M1243 2250 c-13 -5 -23 -12 -23 -15 0 -9 16 -5 36 10 22 16 19 18
-13 5z" />
    <path d="M3390 2204 c0 -6 14 -23 30 -39 17 -16 30 -24 30 -19 0 6 -13 23 -30
39 -16 16 -30 24 -30 19z" />
    <path d="M2645 2114 c-16 -13 -25 -24 -19 -24 15 0 61 37 54 43 -3 3 -18 -6
-35 -19z" />
    <path d="M3044 2075 c11 -8 25 -15 30 -15 6 0 2 7 -8 15 -11 8 -25 15 -30 15
-6 0 -2 -7 8 -15z" />
    <path d="M197 2009 c-22 -11 -37 -23 -34 -25 5 -6 87 33 87 41 0 9 -14 4 -53
-16z" />
    <path d="M2450 1955 c-7 -9 -11 -18 -8 -20 3 -3 11 1 18 10 7 9 11 18 8 20 -3
3 -11 -1 -18 -10z" />
    <path d="M100 1945 l-12 -15 10 0 c12 0 26 19 19 26 -2 2 -10 -2 -17 -11z" />
    <path d="M1663 1830 c-13 -5 -23 -11 -23 -14 0 -7 40 6 46 15 6 10 6 10 -23
-1z" />
    <path d="M3510 1524 c0 -5 7 -19 15 -30 8 -10 15 -14 15 -8 0 5 -7 19 -15 30
-8 10 -15 14 -15 8z" />
    <path d="M1034 1445 c-10 -8 -14 -15 -8 -15 5 0 19 7 30 15 10 8 14 15 8 15
-5 0 -19 -7 -30 -15z" />
    <path d="M3550 1455 c0 -5 9 -21 20 -35 11 -14 20 -20 20 -15 0 6 -9 21 -20
35 -11 14 -20 21 -20 15z" />
    <path d="M445 1281 c-3 -5 -1 -12 4 -15 5 -3 11 1 15 9 6 16 -9 21 -19 6z" />
    <path d="M1800 1221 c0 -6 5 -13 10 -16 l10 -6 0 15 c0 9 -4 16 -10 16 -5 0
-10 -4 -10 -9z" />
  </g>
  <g transform="translate(0.000000,500.000000) scale(0.100000,-0.100000)" fill="#fcc4c3" stroke="none">
    <path d="M3974 3936 c-3 -7 -4 -38 -2 -67 l3 -54 5 68 c5 67 4 79 -6 53z" />
    <path d="M4535 3790 c0 -33 3 -60 8 -60 4 0 7 27 7 60 0 33 -3 60 -7 60 -5 0
-8 -27 -8 -60z" />
    <path d="M3793 3823 c9 -2 23 -2 30 0 6 3 -1 5 -18 5 l-30 0 18 -5z" />
    <path d="M4068 3823 c12 -2 30 -2 40 0 9 3 -1 5 -23 4 l-40 0 23 -4z" />
    <path d="M4309 3806 c-3 -31 0 -128 4 -132 3 -3 7 24 9 61 1 37 0 69 -4 72 -5
2 -8 2 -9 -1z" />
    <path d="M3063 3755 c0 -27 2 -38 4 -22 2 15 2 37 0 50 -2 12 -4 0 -4 -28z" />
    <path d="M4648 3744 c-1 -31 -1 -60 2 -64 l6 -9 14 9 15 10 -13 0 -14 0 4 55
c1 30 0 55 -4 55 -3 0 -8 -25 -10 -56z" />
    <path d="M2948 3733 c6 -65 10 -70 11 -15 0 28 -3 52 -7 52 -4 0 -6 -17 -4
-37z" />
    <path d="M4731 3766 c2 -2 15 -9 29 -15 l25 -12 -19 15 c-16 13 -49 24 -35 12z" />
    <path d="M3834 3719 l-29 -7 83 -1 82 -1 0 -62 c0 -79 8 -72 11 11 l3 63 -60
2 c-34 0 -74 -2 -90 -5z" />
    <path d="M4023 3713 c9 -2 25 -2 35 0 9 3 1 5 -18 5 -19 0 -27 -2 -17 -5z" />
    <path d="M3620 3700 l-15 -10 13 0 12 0 0 -59 0 -59 23 6 22 6 -18 4 -18 4 2
54 c3 60 0 67 -21 54z" />
    <path d="M4770 3632 c0 -4 14 -13 30 -19 17 -6 30 -10 30 -7 0 2 -13 10 -30
19 -16 9 -30 12 -30 7z" />
    <path d="M4540 3565 c0 -30 0 -58 -1 -62 0 -4 3 -9 8 -10 4 -2 8 26 8 62 0 36
-3 65 -7 65 -5 0 -8 -25 -8 -55z" />
    <path d="M3748 3593 c12 -2 30 -2 40 0 9 3 -1 5 -23 4 l-40 0 23 -4z" />
    <path d="M4648 3520 c-1 -33 0 -60 5 -60 4 0 7 27 7 60 0 77 -7 77 -12 0z" />
    <path d="M4877 3518 c1 -35 2 -66 2 -69 1 -3 8 -6 16 -6 l15 0 -11 13 -11 13
3 52 3 53 -9 3 -10 3 2 -62z" />
    <path d="M4308 3510 c-1 -33 0 -60 4 -60 3 0 8 27 10 60 1 33 0 60 -4 60 -3 0
-8 -27 -10 -60z" />
    <path d="M3855 3490 l-6 -10 20 0 c25 0 27 6 6 13 -8 4 -17 2 -20 -3z" />
    <path d="M3970 3437 c0 -37 3 -67 8 -67 8 0 7 118 -2 127 -3 4 -6 -24 -6 -60z" />
    <path d="M3793 3483 c9 -2 23 -2 30 0 6 3 -1 5 -18 5 l-30 0 18 -5z" />
    <path d="M4063 3483 c9 -2 23 -2 30 0 6 3 -1 5 -18 5 l-30 0 18 -5z" />
    <path d="M3612 3463 l17 -4 4 -57 3 -57 2 63 2 62 -22 -1 -23 -1 17 -5z" />
    <path d="M101 3441 l-12 -8 27 -12 c32 -14 36 -11 14 10 l-18 17 -11 -7z" />
    <path d="M4734 3426 c11 -9 24 -16 30 -16 12 0 7 5 -24 19 l-25 12 19 -15z" />
    <path d="M446 3328 c1 -34 6 -64 10 -65 l9 -3 -3 65 c-5 83 -17 85 -16 3z" />
    <path d="M4538 3330 c-1 -33 0 -60 4 -60 3 0 8 27 10 60 1 33 0 60 -4 60 -3 0
-8 -27 -10 -60z" />
    <path d="M220 3315 l0 -56 -19 11 c-30 15 -39 11 -11 -5 37 -21 38 -20 42 45
1 33 0 60 -4 60 -5 0 -8 -25 -8 -55z" />
    <path d="M4638 3353 l12 -5 0 -58 c0 -32 3 -61 8 -63 4 -3 5 22 4 55 l-4 60
14 -8 13 -8 -14 17 c-7 9 -21 17 -30 16 l-16 -1 13 -5z" />
    <path d="M558 3290 l-3 -60 10 0 10 0 0 60 c0 78 -12 78 -17 0z" />
    <path d="M4875 3290 c0 -33 3 -60 8 -60 4 0 7 27 7 60 0 33 -3 60 -7 60 -5 0
-8 -27 -8 -60z" />
    <path d="M2723 3265 c0 -27 2 -38 4 -22 2 15 2 37 0 50 -2 12 -4 0 -4 -28z" />
    <path d="M1126 3228 l2 -63 23 3 c32 5 38 12 11 12 l-22 0 0 55 c0 30 -3 55
-7 55 -5 0 -7 -28 -7 -62z" />
    <path d="M791 3198 c-5 -17 -3 -128 3 -128 3 0 12 0 19 0 l12 0 -12 8 -12 7
-4 60 c-2 33 -4 57 -6 53z" />
    <path d="M958 3173 c12 -2 30 -2 40 0 9 3 -1 5 -23 4 l-40 0 23 -4z" />
    <path d="M445 3100 c0 -78 12 -78 17 0 l3 60 -10 0 -10 0 0 -60z" />
    <path d="M218 3085 c-1 -36 0 -65 5 -65 4 0 7 25 7 56 l0 55 13 -7 12 -8 -14
17 c-7 9 -15 17 -16 17 -2 0 -5 -29 -7 -65z" />
    <path d="M555 3065 l0 -65 10 0 10 0 -3 55 -4 55 19 1 18 0 -20 9 c-11 5 -22
9 -25 9 -3 1 -5 -28 -5 -64z" />
    <path d="M4880 3123 c0 -9 40 -36 45 -31 2 2 -8 11 -21 21 -13 10 -24 14 -24
10z" />
    <path d="M106 3086 c3 -8 14 -16 25 -19 25 -7 24 -3 -6 17 l-24 16 5 -14z" />
    <path d="M1465 3035 c0 -36 2 -65 5 -64 3 0 14 4 25 9 l20 9 -18 0 -19 1 4 55
3 55 -10 0 -10 0 0 -65z" />
    <path d="M1131 3070 c-1 -3 -3 -33 -4 -68 l-2 -62 10 0 10 0 -3 48 c-3 52 -8
90 -11 82z" />
    <path d="M2038 2963 c5 -76 10 -83 11 -15 0 34 -2 62 -7 62 -4 0 -6 -21 -4
-47z" />
    <path d="M790 2907 l-5 -67 25 1 25 1 -17 5 -17 4 -3 62 -3 62 -5 -68z" />
    <path d="M995 2950 l-30 -8 33 -1 c17 0 32 4 32 9 0 6 -1 9 -2 9 -2 -1 -16 -5
-33 -9z" />
    <path d="M445 2870 c0 -78 12 -78 17 0 l3 60 -10 0 -10 0 0 -60z" />
    <path d="M558 2843 c5 -79 17 -87 16 -10 -1 34 -6 63 -10 64 l-9 3 3 -57z" />
    <path d="M1130 2778 l-5 -67 8 8 c4 4 7 35 5 67 l-3 59 -5 -67z" />
    <path d="M1020 2718 c0 -4 21 -8 48 -7 52 1 48 6 -10 11 -21 2 -38 0 -38 -4z" />
  </g>
  <g transform="translate(0.000000,500.000000) scale(0.100000,-0.100000)" fill="#838495" stroke="none">
    <path d="M3493 4403 c9 -2 23 -2 30 0 6 3 -1 5 -18 5 l-30 0 18 -5z" />
    <path d="M3319 4349 l-24 -20 30 17 c39 24 40 24 28 24 -6 0 -21 -9 -34 -21z" />
    <path d="M2185 4289 c-4 -6 -4 -13 -1 -16 3 -4 6 -1 6 5 0 6 8 13 18 15 l17 5
-17 1 c-9 0 -20 -4 -23 -10z" />
    <path d="M3712 4110 c0 -19 2 -27 5 -17 2 9 2 25 0 35 -3 9 -5 1 -5 -18z" />
    <path d="M3712 4025 l0 -30 5 18 c2 9 2 23 0 30 -3 6 -5 -1 -5 -18z" />
    <path d="M2697 3551 c-43 -28 -45 -34 -4 -15 20 10 37 21 37 26 0 10 1 10 -33
-11z" />
    <path d="M1370 3396 c0 -11 30 -66 36 -66 2 0 -3 15 -12 33 -19 36 -24 44 -24
33z" />
    <path d="M3573 3213 c9 -2 25 -2 35 0 9 3 1 5 -18 5 -19 0 -27 -2 -17 -5z" />
    <path d="M2220 3149 c-7 -11 -10 -23 -7 -25 2 -2 9 7 15 21 14 30 7 33 -8 4z" />
    <path d="M2564 3151 c7 -11 46 -35 46 -28 0 3 -12 12 -26 22 -15 9 -23 12 -20
6z" />
    <path d="M2675 3100 c3 -5 14 -10 23 -10 l17 0 -15 10 c-20 13 -33 13 -25 0z" />
    <path d="M3573 3043 c9 -2 23 -2 30 0 6 3 -1 5 -18 5 l-30 0 18 -5z" />
    <path d="M1921 2887 l-11 -14 15 0 c8 0 15 6 15 14 0 7 -2 13 -4 13 -2 0 -9
-6 -15 -13z" />
    <path d="M2133 2540 c0 -36 2 -50 4 -32 2 17 2 47 0 65 -2 17 -4 3 -4 -33z" />
    <path d="M1509 2389 l-24 -20 30 17 c39 24 40 24 28 24 -6 0 -21 -9 -34 -21z" />
    <path d="M3139 2387 c14 -18 51 -42 51 -33 0 3 -15 15 -32 27 l-33 23 14 -17z" />
    <path d="M1309 2279 l-24 -20 28 17 c15 9 27 18 27 20 0 8 -8 4 -31 -17z" />
    <path d="M190 2005 c-14 -8 -20 -14 -14 -15 5 0 19 7 30 15 24 18 16 19 -16 0z" />
    <path d="M1203 1753 c9 -2 25 -2 35 0 9 3 1 5 -18 5 -19 0 -27 -2 -17 -5z" />
    <path d="M1189 1529 l-24 -20 28 17 c15 9 27 18 27 20 0 8 -8 4 -31 -17z" />
    <path d="M2723 1313 c9 -2 23 -2 30 0 6 3 -1 5 -18 5 l-30 0 18 -5z" />
    <path d="M2093 1303 c9 -2 25 -2 35 0 9 3 1 5 -18 5 -19 0 -27 -2 -17 -5z" />
    <path d="M2998 1303 c18 -2 45 -2 60 0 15 2 0 4 -33 4 -33 0 -45 -2 -27 -4z" />
    <path d="M1443 1293 c15 -2 37 -2 50 0 12 2 0 4 -28 4 -27 0 -38 -2 -22 -4z" />
    <path d="M4093 1283 c9 -2 23 -2 30 0 6 3 -1 5 -18 5 l-30 0 18 -5z" />
    <path d="M450 1268 c0 -4 14 -8 30 -8 17 0 30 2 30 4 0 2 -13 6 -30 8 -16 3
-30 1 -30 -4z" />
    <path d="M948 1253 c28 -2 76 -2 105 0 28 2 5 3 -53 3 -58 0 -81 -1 -52 -3z" />
    <path d="M1273 1243 c9 -2 23 -2 30 0 6 3 -1 5 -18 5 l-30 0 18 -5z" />
    <path d="M3018 1243 c18 -2 45 -2 60 0 15 2 0 4 -33 4 -33 0 -45 -2 -27 -4z" />
    <path d="M4073 1233 c9 -2 23 -2 30 0 6 3 -1 5 -18 5 l-30 0 18 -5z" />
    <path d="M3443 1083 c15 -2 39 -2 55 0 15 2 2 4 -28 4 -30 0 -43 -2 -27 -4z" />
    <path d="M2823 1073 c31 -2 83 -2 115 0 31 2 5 3 -58 3 -63 0 -89 -1 -57 -3z" />
    <path d="M2048 1063 c23 -2 61 -2 85 0 23 2 4 4 -43 4 -47 0 -66 -2 -42 -4z" />
    <path d="M1723 1053 c9 -2 23 -2 30 0 6 3 -1 5 -18 5 l-30 0 18 -5z" />
    <path d="M4303 1043 c9 -2 23 -2 30 0 6 3 -1 5 -18 5 l-30 0 18 -5z" />
    <path d="M4493 1033 c9 -2 23 -2 30 0 6 3 -1 5 -18 5 l-30 0 18 -5z" />
    <path d="M4680 1010 l-35 -7 38 -2 37 -1 0 10 c0 6 -1 9 -2 9 -2 -1 -19 -5
-38 -9z" />
    <path d="M3503 1003 c15 -2 39 -2 55 0 15 2 2 4 -28 4 -30 0 -43 -2 -27 -4z" />
    <path d="M4418 993 c12 -2 30 -2 40 0 9 3 -1 5 -23 4 l-40 0 23 -4z" />
    <path d="M343 773 c9 -2 25 -2 35 0 9 3 1 5 -18 5 -19 0 -27 -2 -17 -5z" />
    <path d="M858 723 c72 -2 192 -2 265 0 72 1 13 3 -133 3 -146 0 -205 -2 -132
-3z" />
    <path d="M3383 723 c15 -2 39 -2 55 0 15 2 2 4 -28 4 -30 0 -43 -2 -27 -4z" />
  </g>
  <g transform="translate(0.000000,500.000000) scale(0.100000,-0.100000)" fill="#fd4e4d" stroke="none">
    <path d="M4198 3870 c-1 -33 0 -60 4 -60 3 0 8 27 10 60 1 33 0 60 -4 60 -3 0
-8 -27 -10 -60z" />
    <path d="M3862 3773 l2 -58 3 52 4 52 17 4 17 5 -22 1 -23 1 2 -57z" />
    <path d="M4540 3725 l0 -14 15 5 c8 4 15 7 15 9 0 2 -7 5 -15 9 l-15 5 0 -14z" />
    <path d="M4200 3646 l0 -55 -22 -4 -23 -4 30 -2 30 -1 0 60 c0 33 -3 60 -7 60
-5 0 -8 -24 -8 -54z" />
    <path d="M3517 3668 c-2 -7 -1 -22 4 -33 l8 -20 0 33 c1 33 -4 41 -12 20z" />
    <path d="M2608 3596 l-3 -64 10 4 10 4 0 60 c0 80 -12 77 -17 -4z" />
    <path d="M4770 3580 c0 -27 0 -53 -1 -57 0 -4 3 -9 8 -10 4 -2 8 24 8 57 0 33
-3 60 -7 60 -5 0 -8 -22 -8 -50z" />
    <path d="M3860 3543 l-5 -62 8 8 c5 4 7 32 5 62 l-3 54 -5 -62z" />
    <path d="M110 3486 c0 -30 3 -57 8 -59 4 -3 7 21 7 54 0 32 -3 59 -7 59 -5 0
-8 -24 -8 -54z" />
    <path d="M4198 3413 l4 -63 21 1 22 1 -17 5 -18 4 0 49 0 48 12 4 12 4 -19 6
-20 5 3 -64z" />
    <path d="M4940 3423 c13 -10 33 -26 42 -35 10 -10 18 -14 18 -9 0 5 -12 18
-27 29 -37 25 -65 38 -33 15z" />
    <path d="M4768 3350 c-1 -33 0 -60 4 -60 8 0 15 111 6 116 -3 2 -8 -23 -10
-56z" />
    <path d="M212 3381 l-14 -8 16 -6 16 -6 0 14 c0 17 -1 17 -18 6z" />
    <path d="M3983 3373 c9 -2 25 -2 35 0 9 3 1 5 -18 5 -19 0 -27 -2 -17 -5z" />
    <path d="M108 3260 l-3 -62 17 -9 c24 -13 37 -11 15 2 l-18 11 2 54 c2 29 0
56 -3 60 -3 3 -8 -22 -10 -56z" />
    <path d="M1021 3228 c1 -68 6 -61 11 15 2 26 0 47 -4 47 -5 0 -7 -28 -7 -62z" />
    <path d="M16 3255 c10 -8 23 -15 28 -15 6 0 1 7 -10 15 -10 8 -23 15 -28 15
-6 0 -1 -7 10 -15z" />
    <path d="M680 3156 l0 -55 -17 -4 -18 -5 22 -1 21 -1 4 60 c1 33 0 60 -4 60
-5 0 -8 -24 -8 -54z" />
    <path d="M2606 3158 c1 -23 5 -43 10 -45 l9 -3 -3 45 c-5 57 -17 59 -16 3z" />
    <path d="M1358 3130 c-1 -33 0 -60 5 -60 4 0 7 27 7 60 0 77 -7 77 -12 0z" />
    <path d="M436 3159 c3 -5 12 -9 21 -9 19 0 9 13 -12 16 -8 1 -13 -2 -9 -7z" />
    <path d="M4927 3090 c6 -8 25 -23 42 -33 l31 -18 0 17 c0 10 -3 14 -7 11 -3
-4 -22 3 -42 15 l-36 22 12 -14z" />
    <path d="M110 3027 l0 -53 12 -12 c7 -7 16 -12 22 -12 5 0 2 6 -8 13 l-18 13
3 52 c2 29 1 52 -3 52 -5 0 -8 -24 -8 -53z" />
    <path d="M1078 3063 l-58 -4 0 -59 c0 -33 3 -60 8 -60 4 0 5 25 4 55 l-4 55
50 0 c28 0 54 5 57 10 3 6 5 9 3 8 -2 -1 -29 -3 -60 -5z" />
    <path d="M320 2975 c14 -8 30 -14 35 -14 6 0 -1 6 -15 14 -14 8 -29 14 -35 14
-5 0 1 -6 15 -14z" />
    <path d="M680 2926 l0 -54 -12 -5 -13 -5 20 -1 20 -1 0 60 c0 33 -3 60 -7 60
-5 0 -8 -24 -8 -54z" />
    <path d="M1359 2912 l3 -55 -13 -9 -14 -10 15 5 15 4 3 56 3 56 22 4 22 5 -30
-1 -30 -1 4 -54z" />
    <path d="M1193 2943 c9 -2 23 -2 30 0 6 3 -1 5 -18 5 l-30 0 18 -5z" />
    <path d="M1930 2885 c0 -14 4 -25 9 -25 4 0 6 11 3 25 -2 14 -6 25 -8 25 -2 0
-4 -11 -4 -25z" />
    <path d="M1020 2822 c0 -4 17 -6 38 -4 58 5 62 10 10 11 -27 1 -48 -3 -48 -7z" />
  </g>
  <g transform="translate(0.000000,500.000000) scale(0.100000,-0.100000)" fill="#fa8c8b" stroke="none">
    <path d="M3633 3750 c0 -36 2 -50 4 -32 2 17 2 47 0 65 -2 17 -4 3 -4 -33z" />
    <path d="M4538 3675 c2 -36 7 -65 10 -65 4 0 5 29 4 65 -2 36 -7 65 -10 65 -4
0 -5 -29 -4 -65z" />
    <path d="M3970 3719 c0 -5 11 -9 25 -9 14 0 25 2 25 4 0 2 -11 6 -25 8 -14 3
-25 1 -25 -3z" />
    <path d="M4886 3678 c-3 -7 -6 -34 -8 -60 l-3 -48 10 -4 10 -3 -4 50 -3 50 12
7 12 8 -11 6 -11 7 -4 -13z" />
    <path d="M3637 3583 c-4 -3 -7 -30 -7 -59 l0 -52 -12 -5 -13 -5 17 -1 16 -1 4
65 c1 36 3 65 2 65 0 0 -4 -3 -7 -7z" />
    <path d="M4536 3447 c2 -79 19 -86 19 -7 l0 60 -10 4 -10 3 1 -60z" />
    <path d="M4008 3483 c12 -2 30 -2 40 0 9 3 -1 5 -23 4 l-40 0 23 -4z" />
    <path d="M4878 3400 c-1 -33 0 -60 5 -60 4 0 7 27 7 60 0 77 -7 77 -12 0z" />
    <path d="M4691 3326 c2 -2 15 -9 29 -15 l25 -12 -19 15 c-16 13 -49 24 -35 12z" />
    <path d="M790 3248 l-5 -67 8 8 c4 4 7 35 5 67 l-3 59 -5 -67z" />
    <path d="M1048 3283 c17 -2 47 -2 65 0 17 2 3 4 -33 4 -36 0 -50 -2 -32 -4z" />
    <path d="M452 3208 l2 -63 3 55 c3 30 10 58 16 62 l12 8 -17 0 -18 0 2 -62z" />
    <path d="M4880 3176 c0 -30 3 -57 8 -59 4 -3 7 21 7 54 0 32 -3 59 -7 59 -5 0
-8 -24 -8 -54z" />
    <path d="M913 3173 c9 -2 23 -2 30 0 6 3 -1 5 -18 5 l-30 0 18 -5z" />
    <path d="M1128 3133 c5 -76 10 -83 11 -15 0 34 -2 62 -7 62 -4 0 -6 -21 -4
-47z" />
    <path d="M1183 3173 c9 -2 23 -2 30 0 6 3 -1 5 -18 5 l-30 0 18 -5z" />
    <path d="M793 3015 c0 -33 2 -45 4 -27 2 18 2 45 0 60 -2 15 -4 0 -4 -33z" />
    <path d="M445 2985 l0 -65 10 0 10 0 -1 62 c-2 83 -19 86 -19 3z" />
    <path d="M2400 3020 c0 -5 7 -10 16 -10 l15 0 -6 10 c-3 6 -10 10 -16 10 -5 0
-9 -4 -9 -10z" />
    <path d="M943 2943 c9 -2 23 -2 30 0 6 3 -1 5 -18 5 l-30 0 18 -5z" />
    <path d="M1130 2888 l5 -63 3 57 3 57 27 4 27 4 -35 2 -35 1 5 -62z" />
    <path d="M194 2926 c24 -19 36 -20 36 -4 0 6 -3 8 -6 5 -4 -3 -16 -2 -28 4
l-21 10 19 -15z" />
    <path d="M789 2788 c5 -67 8 -63 13 15 l3 47 -10 0 -10 0 4 -62z" />
  </g>
  <g transform="translate(0.000000,500.000000) scale(0.100000,-0.100000)" fill="#fa7c7b" stroke="none">
    <path d="M4311 3848 c0 -32 2 -58 7 -58 4 0 6 19 4 43 -5 70 -10 76 -11 15z" />
    <path d="M3973 3770 c0 -36 2 -50 4 -32 2 17 2 47 0 65 -2 17 -4 3 -4 -33z" />
    <path d="M4650 3632 l5 -67 3 59 c2 32 -1 63 -5 67 l-8 8 5 -67z" />
    <path d="M2718 3630 c2 -33 7 -60 10 -60 4 0 5 27 4 60 -2 33 -7 60 -10 60 -4
0 -5 -27 -4 -60z" />
    <path d="M4311 3623 c0 -35 2 -63 7 -63 4 0 6 21 4 48 -5 75 -10 82 -11 15z" />
    <path d="M2430 3595 c-19 -7 -28 -13 -20 -13 8 0 31 6 50 13 19 7 28 13 20 13
-8 0 -31 -6 -50 -13z" />
    <path d="M3973 3545 c0 -33 2 -45 4 -27 2 18 2 45 0 60 -2 15 -4 0 -4 -33z" />
    <path d="M2530 3515 c-19 -7 -28 -13 -20 -13 8 0 31 6 50 13 19 7 28 13 20 13
-8 0 -31 -6 -50 -13z" />
    <path d="M221 3423 c0 -35 2 -63 7 -63 4 0 6 21 4 48 -5 75 -10 82 -11 15z" />
    <path d="M4652 3402 l2 -67 3 55 c3 30 9 57 14 61 l11 6 -16 6 -16 6 2 -67z" />
    <path d="M4305 3395 c0 -36 3 -65 8 -65 4 0 7 29 7 65 0 36 -3 65 -7 65 -5 0
-8 -29 -8 -65z" />
    <path d="M4495 3400 c11 -5 27 -9 35 -9 l15 0 -20 9 c-11 5 -27 9 -35 9 l-15
0 20 -9z" />
    <path d="M0 3387 c0 -3 12 -12 26 -22 15 -9 23 -12 20 -6 -7 11 -46 35 -46 28z" />
    <path d="M4485 3290 c11 -5 27 -9 35 -9 l15 0 -20 9 c-11 5 -27 9 -35 9 l-15
0 20 -9z" />
    <path d="M218 3199 c-1 -34 0 -63 5 -66 4 -2 7 25 7 61 0 83 -7 86 -12 5z" />
    <path d="M559 3181 c5 -58 8 -55 13 15 l3 41 -10 0 -10 0 4 -56z" />
    <path d="M2723 3175 c0 -33 2 -45 4 -27 2 18 2 45 0 60 -2 15 -4 0 -4 -33z" />
    <path d="M1469 3159 l3 -52 -13 -8 -14 -9 20 0 20 0 0 60 0 60 -10 0 -10 0 4
-51z" />
    <path d="M2144 3143 c3 -10 6 -39 7 -64 l3 -47 15 6 15 6 -12 4 -12 4 0 54 0
54 -11 0 -10 0 5 -17z" />
    <path d="M218 2988 c5 -71 10 -77 11 -15 0 31 -2 57 -7 57 -4 0 -6 -19 -4 -42z" />
    <path d="M555 2948 c0 -75 12 -75 17 0 l3 59 -10 0 -10 0 0 -59z" />
    <path d="M1477 2983 c-10 -9 -9 -103 1 -103 4 0 7 25 7 55 0 30 0 55 -1 55 0
0 -4 -3 -7 -7z" />
    <path d="M1058 2943 c18 -2 45 -2 60 0 15 2 0 4 -33 4 -33 0 -45 -2 -27 -4z" />
    <path d="M1183 2833 c9 -2 23 -2 30 0 6 3 -1 5 -18 5 l-30 0 18 -5z" />
    <path d="M1023 2765 c0 -33 2 -45 4 -27 2 18 2 45 0 60 -2 15 -4 0 -4 -33z" />
  </g>
  <g transform="translate(0.000000,500.000000) scale(0.100000,-0.100000)" fill="#161538" stroke="none">
    <path d="M3575 3810 l-6 -10 15 0 c9 0 16 5 16 10 0 6 -4 10 -9 10 -6 0 -13
-4 -16 -10z" />
    <path d="M3140 3740 c-19 -11 -31 -19 -27 -20 11 0 67 29 67 35 0 7 -1 7 -40
-15z" />
    <path d="M2361 3665 c0 -5 4 -19 9 -30 l9 -20 0 15 c0 8 -4 22 -9 30 -5 8 -9
11 -9 5z" />
    <path d="M2778 3598 c-16 -5 -28 -14 -28 -19 0 -5 -5 -8 -11 -6 -6 1 -14 -4
-16 -11 l-5 -13 53 26 c30 15 56 29 58 31 8 7 -24 2 -51 -8z" />
    <path d="M1480 3575 l-12 -15 10 0 c5 0 15 7 22 15 l12 15 -10 0 c-5 0 -15 -7
-22 -15z" />
    <path d="M1430 3525 c-7 -9 -11 -18 -8 -20 3 -3 11 1 18 10 7 9 11 18 8 20 -3
3 -11 -1 -18 -10z" />
    <path d="M2540 3475 c-14 -8 -20 -14 -14 -15 5 0 19 7 30 15 24 18 16 19 -16
0z" />
    <path d="M1700 3344 l0 -15 10 6 c6 3 10 10 10 16 0 5 -4 9 -10 9 -5 0 -10 -7
-10 -16z" />
    <path d="M2764 3344 l-19 -15 25 12 c31 14 36 19 24 19 -6 0 -19 -7 -30 -16z" />
    <path d="M2822 3291 c-6 -17 -9 -31 -6 -31 7 0 25 52 20 57 -2 2 -8 -10 -14
-26z" />
    <path d="M2212 3278 c-16 -21 -44 -80 -39 -84 2 -2 12 14 22 36 10 23 26 45
34 50 9 5 11 10 5 10 -6 0 -16 -6 -22 -12z" />
    <path d="M2533 3260 c-24 -10 -43 -21 -43 -24 0 -4 90 32 99 40 11 10 -18 2
-56 -16z" />
    <path d="M1450 3245 c0 -5 9 -21 20 -35 11 -14 20 -20 20 -15 0 6 -9 21 -20
35 -11 14 -20 21 -20 15z" />
    <path d="M2252 3221 c-6 -17 -9 -31 -6 -31 7 0 25 52 20 57 -2 2 -8 -10 -14
-26z" />
    <path d="M1642 3228 c6 -17 38 -23 38 -8 0 6 -4 8 -10 5 -5 -3 -10 -1 -10 4 0
6 -5 11 -11 11 -6 0 -9 -6 -7 -12z" />
    <path d="M1500 3172 c0 -12 19 -26 26 -19 2 2 -2 10 -11 17 l-15 12 0 -10z" />
    <path d="M2614 3116 c11 -9 24 -16 30 -16 12 0 7 5 -24 19 l-25 12 19 -15z" />
    <path d="M1550 3110 c0 -6 11 -15 25 -20 14 -5 25 -14 25 -20 0 -5 5 -10 11
-10 15 0 3 16 -31 40 l-30 21 0 -11z" />
    <path d="M2066 3056 c-28 -37 -31 -46 -17 -46 5 0 11 8 14 18 4 9 14 27 23 40
9 12 14 22 11 22 -2 0 -16 -15 -31 -34z" />
    <path d="M2182 3065 c-6 -14 -8 -25 -3 -25 8 0 23 41 17 47 -1 2 -8 -8 -14
-22z" />
    <path d="M2411 3037 c-6 -6 -11 -16 -11 -21 0 -6 7 -2 15 8 8 11 15 14 15 8 0
-7 5 -12 10 -12 15 0 12 17 -4 23 -7 3 -19 0 -25 -6z" />
    <path d="M1970 2955 c-33 -35 -21 -39 13 -4 16 16 24 29 19 29 -5 0 -19 -11
-32 -25z" />
    <path d="M3210 2915 c-7 -9 -11 -18 -8 -20 3 -3 11 1 18 10 7 9 11 18 8 20 -3
3 -11 -1 -18 -10z" />
    <path d="M1281 2625 c-29 -50 -26 -58 5 -12 14 21 24 41 21 43 -2 3 -14 -11
-26 -31z" />
    <path d="M1860 2642 c0 -5 7 -15 15 -22 l15 -12 0 10 c0 5 -7 15 -15 22 l-15
12 0 -10z" />
    <path d="M3040 2475 c7 -9 15 -13 17 -11 7 7 -7 26 -19 26 l-10 0 12 -15z" />
    <path d="M1595 2422 c6 -5 26 -15 45 -21 19 -6 30 -8 25 -3 -6 5 -26 15 -45
21 -19 6 -30 8 -25 3z" />
    <path d="M3112 2404 c10 -10 20 -15 24 -12 3 4 -5 12 -18 18 l-23 12 17 -18z" />
    <path d="M1010 2349 l-35 -30 37 23 c21 13 38 26 38 31 0 10 -2 9 -40 -24z" />
    <path d="M3365 2220 c16 -16 31 -28 33 -25 7 7 -39 55 -52 55 -5 0 3 -13 19
-30z" />
    <path d="M2725 2210 c-27 -30 -12 -34 15 -5 13 14 19 25 13 25 -5 0 -18 -9
-28 -20z" />
    <path d="M2050 2182 c0 -5 7 -15 15 -22 l15 -12 0 10 c0 5 -7 15 -15 22 l-15
12 0 -10z" />
    <path d="M3520 2055 c7 -9 15 -13 17 -11 7 7 -7 26 -19 26 l-10 0 12 -15z" />
    <path d="M2520 2035 c-20 -24 -6 -28 15 -5 10 11 13 20 8 20 -6 0 -16 -7 -23
-15z" />
    <path d="M2095 1930 c-10 -11 -13 -20 -8 -20 13 0 38 29 31 35 -3 3 -13 -4
-23 -15z" />
    <path d="M2430 1935 c-7 -9 -11 -18 -8 -20 3 -3 11 1 18 10 7 9 11 18 8 20 -3
3 -11 -1 -18 -10z" />
    <path d="M3373 1891 c23 -22 44 -37 47 -34 6 6 -69 73 -81 73 -5 0 11 -18 34
-39z" />
    <path d="M4043 960 c-34 -14 -28 -21 7 -9 17 6 30 13 30 15 0 6 -12 4 -37 -6z" />
  </g>
  <g transform="translate(0.000000,500.000000) scale(0.100000,-0.100000)" fill="#fc2c2b" stroke="none">
    <path d="M2885 3745 l-30 -15 25 6 c14 4 29 10 35 15 12 12 5 11 -30 -6z" />
    <path d="M4950 3641 c14 -11 28 -21 33 -21 4 0 7 -22 7 -49 l0 -49 -12 -5 -13
-5 18 -1 18 -1 -3 55 -3 56 -35 21 -35 20 25 -21z" />
    <path d="M2748 3588 c-27 -9 -39 -28 -18 -28 6 0 10 5 10 11 0 5 4 8 8 5 9 -5
39 11 32 17 -3 2 -17 0 -32 -5z" />
    <path d="M4730 3535 c14 -8 30 -14 35 -14 6 0 -1 6 -15 14 -14 8 -29 14 -35
14 -5 0 1 -6 15 -14z" />
    <path d="M20 3481 c14 -11 30 -21 35 -21 11 0 -7 14 -40 31 l-20 10 25 -20z" />
    <path d="M4993 3325 c0 -33 2 -45 4 -27 2 18 2 45 0 60 -2 15 -4 0 -4 -33z" />
    <path d="M4700 3215 c0 -7 61 -37 66 -33 2 3 -12 12 -31 21 -19 9 -35 15 -35
12z" />
    <path d="M4955 3180 l30 -20 6 -62 6 -63 1 62 2 62 -29 20 c-16 12 -33 21 -38
21 -4 0 6 -9 22 -20z" />
    <path d="M375 3180 c3 -4 14 -10 25 -13 11 -3 18 -2 15 3 -3 4 -14 10 -25 13
-11 3 -18 2 -15 -3z" />
    <path d="M250 3126 c0 -3 14 -12 30 -21 17 -9 30 -13 30 -11 0 3 -13 12 -30
21 -16 9 -30 13 -30 11z" />
  </g>
  <g transform="translate(0.000000,500.000000) scale(0.100000,-0.100000)" fill="#232747" stroke="none">
    <path d="M2464 3854 l-19 -15 25 12 c31 14 36 19 24 19 -6 0 -19 -7 -30 -16z" />
    <path d="M3535 3749 c-9 -17 -15 -33 -13 -35 3 -2 12 12 21 31 21 43 13 47 -8
4z" />
    <path d="M2237 3193 c-4 -3 -7 -13 -7 -22 l1 -16 10 18 c11 19 8 33 -4 20z" />
    <path d="M2771 3173 l-11 -28 15 19 c8 11 15 23 15 28 0 15 -7 8 -19 -19z" />
    <path d="M1500 3170 c6 -11 15 -20 20 -20 6 0 2 9 -7 20 -10 11 -19 20 -21 20
-1 0 2 -9 8 -20z" />
    <path d="M3382 3100 c7 -10 14 -18 15 -16 6 6 -9 36 -18 36 -5 0 -4 -9 3 -20z" />
    <path d="M1461 2874 c-7 -8 -11 -17 -9 -20 3 -2 13 5 23 16 10 11 14 20 9 20
-5 -1 -15 -8 -23 -16z" />
    <path d="M2365 2370 c-9 -16 -13 -30 -11 -30 3 0 12 14 21 30 9 17 13 30 11
30 -3 0 -12 -13 -21 -30z" />
    <path d="M1851 2286 c10 -9 69 -36 69 -32 0 6 -55 36 -66 36 -4 0 -5 -2 -3 -4z" />
    <path d="M3641 1870 c6 -19 16 -39 21 -45 5 -5 3 6 -3 25 -6 19 -16 39 -21 45
-5 5 -3 -6 3 -25z" />
  </g>
  <g transform="translate(0.000000,500.000000) scale(0.100000,-0.100000)" fill="#a4a3af" stroke="none">
    <path d="M1650 3240 c0 -5 7 -10 15 -10 8 0 15 5 15 10 0 6 -7 10 -15 10 -8 0
-15 -4 -15 -10z" />
    <path d="M3175 2868 l-40 -43 43 40 c39 36 47 45 39 45 -2 0 -21 -19 -42 -42z" />
    <path d="M1155 2468 l-40 -43 43 40 c23 21 42 40 42 42 0 8 -9 0 -45 -39z" />
    <path d="M2010 2467 c0 -2 15 -16 33 -33 l32 -29 -29 33 c-28 30 -36 37 -36
29z" />
    <path d="M3800 1344 c0 -17 27 -37 42 -31 l13 5 -17 1 c-9 1 -22 9 -27 19 -6
9 -11 12 -11 6z" />
  </g>
  <g transform="translate(0.000000,500.000000) scale(0.100000,-0.100000)" fill="#dfe0e4" stroke="none">
    <path d="M3003 3690 c-34 -14 -28 -21 7 -9 17 6 30 13 30 15 0 6 -12 4 -37 -6z" />
    <path d="M2371 2963 l-11 -28 15 19 c8 11 15 23 15 28 0 15 -7 8 -19 -19z" />
    <path d="M1890 2829 c-7 -11 -10 -23 -7 -25 2 -2 9 7 15 21 14 30 7 33 -8 4z" />
    <path d="M1670 2395 c0 -7 61 -37 66 -33 2 3 -12 12 -31 21 -19 9 -35 15 -35
12z" />
    <path d="M3084 2056 c11 -9 24 -16 30 -16 12 0 7 5 -24 19 l-25 12 19 -15z" />
    <path d="M2260 1764 l-25 -15 20 7 c11 4 28 7 37 8 9 0 14 4 12 8 -7 11 -15
10 -44 -8z" />
  </g>
  <g transform="translate(0.000000,500.000000) scale(0.100000,-0.100000)" fill="#63657b" stroke="none">
    <path d="M79 1923 l-24 -28 28 24 c15 14 27 26 27 28 0 8 -8 1 -31 -24z" />
  </g>
  <g transform="translate(0.000000,500.000000) scale(0.100000,-0.100000)" fill="#323755" stroke="none">
    <path d="M3050 2467 c0 -2 15 -16 33 -33 l32 -29 -29 33 c-28 30 -36 37 -36
29z" />
    <path d="M3390 2197 c0 -2 15 -16 33 -33 l32 -29 -29 33 c-28 30 -36 37 -36
29z" />
  </g>
  <g transform="translate(0.000000,500.000000) scale(0.100000,-0.100000)" fill="#d1d0d5" stroke="none">
    <path d="M2788 3603 c-10 -2 -18 -9 -18 -14 l0 -10 23 12 c37 20 36 23 -5 12z" />
    <path d="M2150 2954 l0 -25 10 6 c6 3 10 15 10 26 0 10 -4 19 -10 19 -5 0 -10
-12 -10 -26z" />
    <path d="M3360 1907 c0 -2 15 -16 33 -33 l32 -29 -29 33 c-28 30 -36 37 -36
29z" />
  </g>
  <g transform="translate(0.000000,500.000000) scale(0.100000,-0.100000)" fill="#b1b2bc" stroke="none">
    <path d="M1707 3374 c-4 -4 -7 -14 -7 -23 l0 -15 11 11 c6 6 10 16 7 23 -2 6
-7 8 -11 4z" />
  </g>
  <g transform="translate(0.000000,500.000000) scale(0.100000,-0.100000)" fill="#52556e" stroke="none" />
  <g transform="translate(0.000000,500.000000) scale(0.100000,-0.100000)" fill="#717588" stroke="none" />
  <g transform="translate(0.000000,500.000000) scale(0.100000,-0.100000)" fill="#fba2a1" stroke="none">
    <path d="M445 3040 c27 -12 43 -12 25 0 -8 5 -22 9 -30 9 l-15 0 20 -9z" />
  </g>
  <g transform="translate(0.000000,500.000000) scale(0.100000,-0.100000)" fill="#9194a3" stroke="none" />
  <g transform="translate(0.000000,500.000000) scale(0.100000,-0.100000)" fill="#fce2e1" stroke="none">
    <path d="M3993 3943 c9 -2 25 -2 35 0 9 3 1 5 -18 5 -19 0 -27 -2 -17 -5z" />
    <path d="M221 3366 c10 -9 69 -36 69 -32 0 6 -55 36 -66 36 -4 0 -5 -2 -3 -4z" />
  </g>
  <g transform="translate(0.000000,500.000000) scale(0.100000,-0.100000)" fill="#f8d2d1" stroke="none">
    <path d="M2150 3007 c0 -20 5 -39 11 -42 l10 -7 -7 39 c-9 51 -14 54 -14 10z" />
  </g>
  <g transform="translate(0.000000,500.000000) scale(0.100000,-0.100000)" fill="#fb5f5e" stroke="none" />
  <g transform="translate(0.000000,500.000000) scale(0.100000,-0.100000)" fill="#fcb6b5" stroke="none" />
  <g transform="translate(0.000000,500.000000) scale(0.100000,-0.100000)" fill="#a1111f" stroke="none">
    <path d="M3542 3405 l0 -30 5 18 c2 9 2 23 0 30 -3 6 -5 -1 -5 -18z" />
    <path d="M2114 3113 c-15 -20 -23 -33 -16 -29 13 8 56 66 49 66 -3 0 -17 -17
-33 -37z" />
  </g>
  <g transform="translate(0.000000,500.000000) scale(0.100000,-0.100000)" fill="#f07071" stroke="none" />
  <g transform="translate(0.000000,500.000000) scale(0.100000,-0.100000)" fill="#5e0e26" stroke="none">
    <path d="M1670 3234 l0 -15 -12 7 -11 7 7 -12 8 -12 14 12 c7 6 11 15 8 20 -8
14 -14 11 -14 -7z" />
  </g>
  <g transform="translate(0.000000,500.000000) scale(0.100000,-0.100000)" fill="#d0141b" stroke="none">
    <path d="M1663 3243 c-18 -7 -16 -20 2 -20 8 0 15 6 15 14 0 7 -1 13 -2 12 -2
0 -9 -3 -15 -6z" />
  </g>
  <g transform="translate(0.000000,500.000000) scale(0.100000,-0.100000)" fill="#9a5461" stroke="none" />
</svg>